<?xml version="1.0" encoding="UTF-8"?>
<svg width="522px" height="1060px" viewBox="0 0 522 1060" version="1.1" xmlns="http://www.w3.org/2000/svg" xmlns:xlink="http://www.w3.org/1999/xlink">
    <!-- Generator: Sketch 51.3 (57544) - http://www.bohemiancoding.com/sketch -->
    <title>Group</title>
    <desc>Created with Sketch.</desc>
    <defs>
        <rect id="path-1" x="0" y="0" width="672" height="1078"></rect>
        <polygon id="path-3" points="0 0 0 1078 826.721292 1078 1355 539 826.721292 0"></polygon>
    </defs>
    <g id="Page-1" stroke="none" stroke-width="1" fill="none" fill-rule="evenodd">
        <g id="Group" transform="translate(0.000000, -13.000000)">
            <mask id="mask-2" fill="white">
                <use xlink:href="#path-1"></use>
            </mask>
            <g id="Mask"></g>
            <g mask="url(#mask-2)">
                <g transform="translate(-832.000000, 0.000000)">
                    <mask id="mask-4" fill="white">
                        <use xlink:href="#path-3"></use>
                    </mask>
                    <g id="Mask" stroke="none" fill="none"></g>
                    <g id="Group" stroke="none" stroke-width="1" fill="none" fill-rule="evenodd" mask="url(#mask-4)">
                        <g transform="translate(-81.466258, 0.000000)" id="Path-2" stroke="#D8D8D8">
                            <path d="M0,14.1049239 L1782.56616,14.1049239"></path>
                            <path d="M0,27.7939527 L1782.56616,27.7939527"></path>
                            <path d="M0,41.4829815 L1782.56616,41.4829815"></path>
                            <path d="M0,55.8091175 L1782.56616,55.8091175"></path>
                            <path d="M0,68.8610392 L1782.56616,68.8610392"></path>
                            <path d="M0,81.4970658 L1782.56616,81.4970658"></path>
                            <path d="M0,95.1860946 L1782.56616,95.1860946"></path>
                            <path d="M0,108.459228 L1782.56616,108.459228"></path>
                            <path d="M0,121.51115 L1782.56616,121.51115"></path>
                            <path d="M0,134.147177 L1782.56616,134.147177"></path>
                            <path d="M0,147.836205 L1782.56616,147.836205"></path>
                            <path d="M0,162.162341 L1782.56616,162.162341"></path>
                            <path d="M0,175.214263 L1782.56616,175.214263"></path>
                            <path d="M0,187.85029 L1782.56616,187.85029"></path>
                            <path d="M0,201.539319 L1782.56616,201.539319"></path>
                            <path d="M0,215.865455 L1782.56616,215.865455"></path>
                            <path d="M0,229.970378 L1782.56616,229.970378"></path>
                            <path d="M0,242.606405 L1782.56616,242.606405"></path>
                            <path d="M0,256.295434 L1782.56616,256.295434"></path>
                            <path d="M0,269.568568 L1782.56616,269.568568"></path>
                            <path d="M0,282.620489 L1782.56616,282.620489"></path>
                            <path d="M0,295.256516 L1782.56616,295.256516"></path>
                            <path d="M0,308.945545 L1782.56616,308.945545"></path>
                            <path d="M0,322.218678 L1782.56616,322.218678"></path>
                            <path d="M0,335.2706 L1782.56616,335.2706"></path>
                            <path d="M0,348.959629 L1782.56616,348.959629"></path>
                            <path d="M0,362.648658 L1782.56616,362.648658"></path>
                            <path d="M0,376.974794 L1782.56616,376.974794"></path>
                            <path d="M0,390.026715 L1782.56616,390.026715"></path>
                            <path d="M0,402.662742 L1782.56616,402.662742"></path>
                            <path d="M0,416.351771 L1782.56616,416.351771"></path>
                            <path d="M0,429.624905 L1782.56616,429.624905"></path>
                            <path d="M0,442.676826 L1782.56616,442.676826"></path>
                            <path d="M0,455.312853 L1782.56616,455.312853"></path>
                            <path d="M0,469.001882 L1782.56616,469.001882"></path>
                            <path d="M0,482.275015 L1782.56616,482.275015"></path>
                            <path d="M0,496.379939 L1782.56616,496.379939"></path>
                            <path d="M0,507.962964 L1782.56616,507.962964"></path>
                            <path d="M0,522.704995 L1782.56616,522.704995"></path>
                            <path d="M0,537.031131 L1782.56616,537.031131"></path>
                            <path d="M0,550.083052 L1782.56616,550.083052"></path>
                            <path d="M0,562.719079 L1782.56616,562.719079"></path>
                            <path d="M0,576.408108 L1782.56616,576.408108"></path>
                            <path d="M0,589.681242 L1782.56616,589.681242"></path>
                            <path d="M0,602.733163 L1782.56616,602.733163"></path>
                            <path d="M0,615.36919 L1782.56616,615.36919"></path>
                            <path d="M0,629.058219 L1782.56616,629.058219"></path>
                            <path d="M1.37862812,642.331352 L1783.94479,642.331352"></path>
                            <path d="M1.37862812,655.383274 L1783.94479,655.383274"></path>
                            <path d="M1.37862812,669.072303 L1783.94479,669.072303"></path>
                            <path d="M1.37862812,682.761332 L1783.94479,682.761332"></path>
                            <path d="M1.37862812,697.087468 L1783.94479,697.087468"></path>
                            <path d="M1.37862812,710.139389 L1783.94479,710.139389"></path>
                            <path d="M1.37862812,722.775416 L1783.94479,722.775416"></path>
                            <path d="M1.37862812,736.464445 L1783.94479,736.464445"></path>
                            <path d="M1.37862812,749.737579 L1783.94479,749.737579"></path>
                            <path d="M1.37862812,762.7895 L1783.94479,762.7895"></path>
                            <path d="M1.37862812,775.425527 L1783.94479,775.425527"></path>
                            <path d="M1.37862812,789.114556 L1783.94479,789.114556"></path>
                            <path d="M1.37862812,803.440692 L1783.94479,803.440692"></path>
                            <path d="M1.37862812,817.545616 L1783.94479,817.545616"></path>
                            <path d="M1.37862812,830.181642 L1783.94479,830.181642"></path>
                            <path d="M1.37862812,843.870671 L1783.94479,843.870671"></path>
                            <path d="M1.37862812,858.196807 L1783.94479,858.196807"></path>
                            <path d="M1.37862812,871.248729 L1783.94479,871.248729"></path>
                            <path d="M1.37862812,883.884755 L1783.94479,883.884755"></path>
                            <path d="M1.37862812,897.573784 L1783.94479,897.573784"></path>
                            <path d="M1.37862812,910.846918 L1783.94479,910.846918"></path>
                            <path d="M1.37862812,923.898839 L1783.94479,923.898839"></path>
                            <path d="M1.37862812,936.534866 L1783.94479,936.534866"></path>
                            <path d="M1.37862812,950.223895 L1783.94479,950.223895"></path>
                            <path d="M1.37862812,963.497029 L1783.94479,963.497029"></path>
                            <path d="M1.37862812,976.54895 L1783.94479,976.54895"></path>
                            <path d="M1.37862812,990.237979 L1783.94479,990.237979"></path>
                            <path d="M1.37862812,1003.92701 L1783.94479,1003.92701"></path>
                            <path d="M1.37862812,1018.25314 L1783.94479,1018.25314"></path>
                            <path d="M1.37862812,1032.35807 L1783.94479,1032.35807"></path>
                            <path d="M1.37862812,1044.99409 L1783.94479,1044.99409"></path>
                            <path d="M1.37862812,1058.68312 L1783.94479,1058.68312"></path>
                            <path d="M1.37862812,1071.95626 L1783.94479,1071.95626"></path>
                        </g>
                    </g>
                </g>
            </g>
        </g>
    </g>
</svg>