<?xml version="1.0" encoding="utf-8"?>
<!-- Generator: Adobe Illustrator 24.3.0, SVG Export Plug-In . SVG Version: 6.00 Build 0)  -->
<svg version="1.1" id="Layer_1" xmlns="http://www.w3.org/2000/svg" xmlns:xlink="http://www.w3.org/1999/xlink" x="0px" y="0px"
	 viewBox="0 0 162 143.9" style="enable-background:new 0 0 162 143.9;" xml:space="preserve">
<style type="text/css">
	.st0{fill:#30FFFF;}
</style>
<g>
	<g>
		<g>
			<path class="st0" d="M33.8,24.6c6.1-6.2,13.3-11,21.2-14.4c8.2-3.5,17-5.3,26-5.3s17.8,1.8,26,5.3c8,3.4,15.1,8.2,21.2,14.4
				c3.8,3.8,7.1,8,9.9,12.6h5.8c-3.2-5.9-7.3-11.3-12.1-16.1c-6.6-6.6-14.3-11.8-22.8-15.4C100.1,1.9,90.7,0,81.1,0S62,1.9,53.2,5.7
				C44.7,9.3,37,14.5,30.4,21.1c-4.8,4.8-8.8,10.2-12.1,16.1h5.8C26.7,32.6,30,28.4,33.8,24.6z"/>
		</g>
		<g>
			<path class="st0" d="M128.3,119.3c-6.1,6.2-13.3,11-21.2,14.4c-8.2,3.5-17,5.3-26,5.3s-17.8-1.8-26-5.3
				c-8-3.4-15.1-8.2-21.2-14.4c-3.8-3.8-7.1-8-9.8-12.6h-5.8c3.2,5.9,7.3,11.3,12.1,16.1c6.6,6.6,14.3,11.8,22.8,15.4
				c8.9,3.8,18.3,5.7,27.9,5.7s19.1-1.9,27.9-5.7c8.5-3.6,16.2-8.8,22.8-15.4c4.8-4.8,8.8-10.2,12.1-16.1h-5.8
				C135.4,111.3,132.1,115.5,128.3,119.3z"/>
		</g>
		<g>
			<path class="st0" d="M106.1,30.5c-4.7-2.9-9.7-4.9-15.1-6c-0.9-0.2-1.7,0.4-1.9,1.2c-0.2,0.9,0.4,1.7,1.2,1.9
				c5,1.1,9.7,3,14.1,5.6c1.9,1.2,3.7,2.5,5.5,4h4.7C112,34.6,109.1,32.4,106.1,30.5z"/>
		</g>
		<g>
			<path class="st0" d="M71.8,27.5c0.9-0.2,1.4-1,1.2-1.9c-0.2-0.9-1-1.4-1.9-1.2c-5.3,1.1-10.4,3.2-15.1,6
				c-3.1,1.9-5.9,4.1-8.5,6.7h4.7c1.7-1.5,3.5-2.8,5.5-4C62,30.5,66.8,28.6,71.8,27.5z"/>
		</g>
		<g>
			<path class="st0" d="M81,119.5c6.5,0,12.7-1.3,18.7-3.8c5.1-2.2,9.7-5.2,13.8-9h-4.9c-3.1,2.5-6.5,4.5-10.2,6
				c-5.5,2.3-11.4,3.5-17.4,3.5s-11.9-1.2-17.4-3.5c-3.7-1.6-7.1-3.6-10.2-6h-4.8c4.1,3.8,8.7,6.8,13.8,9
				C68.3,118.2,74.6,119.5,81,119.5z"/>
		</g>
	</g>
	<g>
		<g>
			<g>
				<rect x="2.6" y="80.6" class="st0" width="4.3" height="2.7"/>
			</g>
			<g>
				<rect x="1.6" y="63.3" class="st0" width="1.8" height="3.3"/>
			</g>
			<g>
				<polygon class="st0" points="162,76 162,74.5 156.4,74.5 156.4,75.6 154.6,75.6 154.6,77.4 155.8,77.4 155.8,79.6 160.6,79.6 
					160.6,77.4 159.8,77.4 159.8,76 				"/>
			</g>
			<g>
				<polygon class="st0" points="159.8,47.1 160.9,47.1 160.9,45.1 158.8,45.1 158.8,47.1 156.5,47.1 156.5,50.4 159.8,50.4 				"/>
			</g>
			<g>
				<rect x="158.8" y="56.8" class="st0" width="2" height="2"/>
			</g>
			<g>
				<rect x="160.7" y="51" class="st0" width="1.3" height="1.3"/>
			</g>
			<g>
				<path class="st0" d="M106,50h-3.3c0.1,0.2,0.2,0.3,0.3,0.5c0.5,0.9,0.7,1.6,0.7,2.2l-42-0.1h-0.8H30.2c-1.6,0.2-3,0.4-4.3,0.9
					c-1.2,0.4-2.2,0.9-3.1,1.6c-0.4,0.3-0.9,0.7-1.3,1.1c-0.1,0.1-0.2,0.2-0.3,0.3c-1.1,1.1-2,2.3-2.7,3.7c-0.4,0.9-0.7,1.8-0.9,2.8
					c-0.1,0.3-0.1,0.7-0.2,1c-0.1,0.9-0.2,1.8-0.2,2.7c0,0.3,0,0.5,0,0.8c0,0.1,0,0.3,0,0.4c0,0.4,0.1,0.8,0.1,1.2
					c0.2,1.3,0.6,2.6,1.1,3.7c0.5,0.9,1,1.7,1.6,2.5c0.4,0.5,0.7,0.9,1.1,1.3l0,0c0.5,0.5,1,0.9,1.6,1.4c0.1,0.1,0.2,0.1,0.3,0.2
					c1.2,0.8,2.6,1.4,4.3,1.8c0.3,0.1,0.5,0.1,0.8,0.2c0.6,0.1,1.3,0.2,2,0.3h7.8V73c-0.2,0-0.4,0-0.6-0.1l0,0
					c-0.2,0-0.4-0.1-0.6-0.1l0,0c-0.4-0.1-0.8-0.1-1.2-0.2l0,0l0,0c-0.2,0-0.4-0.1-0.5-0.1l0,0c-0.2,0-0.3-0.1-0.5-0.1l0,0
					c-0.1,0-0.3-0.1-0.4-0.1H34c-0.2-0.1-0.3-0.1-0.5-0.2l0,0c-1.1-0.4-2-1.1-2.8-2.2c0-0.1-0.1-0.1-0.1-0.2
					c-0.2-0.2-0.3-0.5-0.5-0.7c-0.2-0.4-0.5-0.9-0.7-1.4c-0.1-0.3-0.2-0.6-0.3-0.9h18.7v6.4v-6.4h-0.3v16.8h1.8v2.7h-1.8v3.4H29.6
					c-0.7,0-1.4-0.1-2.1-0.2c-0.3,0-0.7-0.1-1-0.1c-0.7-0.1-1.4-0.3-2-0.4c-0.9-0.2-1.7-0.5-2.5-0.8c-0.1-0.1-0.3-0.1-0.4-0.2
					c-0.3-0.1-0.5-0.2-0.8-0.3s-0.5-0.2-0.8-0.4c-0.2-0.1-0.3-0.2-0.5-0.2c-0.5-0.3-0.9-0.5-1.4-0.8h2.8c-0.6-0.4-1.2-0.8-1.7-1.2
					c-0.3-0.3-0.7-0.5-1-0.8l-0.1-0.1c-0.2-0.2-0.4-0.4-0.6-0.6h-2.8c0.2,0.2,0.4,0.4,0.6,0.6c-0.2-0.2-0.4-0.4-0.6-0.6
					c-0.1-0.1-0.2-0.2-0.4-0.3c-0.3-0.3-0.6-0.6-0.9-1c-0.3-0.3-0.6-0.7-0.8-1c-0.7-1-1.4-1.9-2-2.9c-0.3-0.4-0.5-0.8-0.7-1.2
					c-0.6-1.2-1.1-2.4-1.5-3.7c-0.1-0.2-0.1-0.4-0.2-0.6c-0.5-1.9-0.8-3.9-0.8-5.9c0-2.2,0.3-4.3,0.8-6.3c0.1-0.2,0.1-0.4,0.2-0.7
					c0.4-1.3,0.9-2.6,1.5-3.8c0.2-0.3,0.3-0.6,0.5-0.8c0.6-1,1.2-1.9,1.9-2.9c0.1-0.1,0.2-0.3,0.3-0.4c0.1-0.2,0.3-0.4,0.4-0.5
					c0.4-0.5,0.9-1,1.4-1.6h-3.6c-1.6,1.9-2.9,4.1-4,6.5c-1.4,3.1-2,6.6-2,10.4c0,3.5,0.7,6.8,2,10c1.1,2.5,2.5,4.7,4.2,6.7h2.8
					c0.4,0.5,0.9,1,1.3,1.4c0.4,0.4,0.9,0.9,1.4,1.3h-2.8c2,1.7,4.3,3.1,7,4.1c3.3,1.3,6.1,1.9,8.5,1.9h19.3l1.5-1.1v-4.9h1.8v-2.7
					H50V64.1H25.6c0,0.6,0.1,1.4,0.3,2.2c0.2,0.9,0.6,1.8,1.1,2.9c0.5,1,1.2,2.1,2.2,3.2c0.9,1.1,2.4,1.9,4.2,2.5
					c0.7,0.2,1.5,0.4,2.4,0.5V78h-5.6c-1.5,0-2.8-0.3-3.9-0.8s-2.2-1.3-3.2-2.4c-1-1.1-1.8-2.3-2.4-3.7c-0.5-1.4-0.8-2.8-0.8-4.3
					c0-1.8,0.3-3.4,0.8-4.8c0.5-1.4,1.3-2.6,2.4-3.7c1-1.1,2.1-1.9,3.2-2.4s2.4-0.8,3.9-0.8H61l46.1,0.1
					C107.2,53.5,106.8,51.7,106,50C106.1,50.1,106.1,50.1,106,50z M15.8,84.3c0.2,0.1,0.3,0.3,0.5,0.4C16.1,84.6,16,84.4,15.8,84.3z
					"/>
			</g>
			<g>
				<path class="st0" d="M102.1,69.7c1.2-1,2.1-2.2,2.8-3.4c0.7-1.2,1.2-2.3,1.5-3.3s0.6-2.2,0.7-3.5H71.6L70,61.3v9.6l12.3,12.7
					h2.8l2.6,2.7h-2.8l5.8,6h16.4v-2.9l-3.2-3.1h2.8l-2.8-2.7h-2.8L91.3,74c2.4-0.2,4.5-0.8,6.3-1.5
					C99.4,71.7,100.9,70.8,102.1,69.7z M90.7,71.5h-5.5l12.3,12.1h2.8l2.7,2.7h-2.8l3.5,3.4H92l-3.4-3.4h2.8l-2.7-2.7h-2.8
					L72.5,70.1v-8h31.2c-0.3,1.6-1.1,3-2.3,4.4c-1,1.2-2.4,2.2-4.1,3.2C95.7,70.7,93.5,71.3,90.7,71.5z"/>
			</g>
			<g>
				<path class="st0" d="M133,41.1c-2.4,0-5.2,0.6-8.5,1.9c-2.8,1.1-5.2,2.5-7.2,4.3h-3.7c-0.4,0.3-0.8,0.7-1.1,1
					c-0.5,0.5-1,1.1-1.5,1.7h3.6c0.6-0.6,1.3-1.2,2-1.8c0.4-0.3,0.9-0.7,1.4-1h3.6c1.2-0.8,2.6-1.5,4.2-2.2c2.2-0.9,4.7-1.4,7.6-1.5
					h17.9v3.7h2.6V42l-1.5-1.1H133V41.1z"/>
			</g>
			<g>
				<path class="st0" d="M151.2,89.8h-17.9c-2.9-0.1-5.4-0.7-7.6-1.5c-1.4-0.6-2.7-1.2-3.8-1.9h2.8c-0.6-0.4-1.2-0.8-1.7-1.2
					c-0.6-0.5-1.2-1-1.8-1.5h-2.8c-0.8-0.7-1.5-1.5-2.1-2.3c-1-1.4-2-2.7-2.7-4.1c-1.6-3.2-2.4-6.6-2.4-10.2c0-3.9,0.8-7.5,2.4-10.7
					c0.8-1.4,1.7-2.7,2.7-4.1c0.6-0.7,1.2-1.4,1.9-2.1h-3.6c-1.6,1.9-2.9,4.1-4,6.5c-1.4,3.1-2,6.6-2,10.4c0,3.5,0.7,6.8,2,10
					c1.1,2.5,2.5,4.7,4.2,6.7h2.8c0.4,0.5,0.9,1,1.3,1.4s0.9,0.9,1.4,1.3h-2.8c2,1.7,4.3,3.1,7,4.1c3.3,1.3,6.1,1.9,8.5,1.9h19.3
					l1.5-1.1v-4.9h-2.6L151.2,89.8L151.2,89.8z"/>
			</g>
			<g>
				<path class="st0" d="M129.7,77.3c-1.1-0.5-2.2-1.3-3.2-2.4c-1-1.1-1.8-2.3-2.4-3.7c-0.2-0.4-0.3-0.9-0.4-1.3h1.8
					c-0.2-0.9-0.3-1.8-0.4-2.7h1.4c0-0.1,0-0.2,0-0.3c0-0.9,0.1-1.7,0.2-2.4h-2.6c-0.1,0.8-0.2,1.6-0.2,2.4c0,0.1,0,0.2,0,0.3h-1.3
					c0,0.9,0.1,1.8,0.3,2.7h-1.8c0.2,1.1,0.6,2.2,1,3.2c1.1,2,2.5,3.8,4.3,5.1c1.8,1.4,4.3,2.2,7.4,2.5h17.4v2.9h2.6v-5.5h-20.2
					C132.1,78.1,130.8,77.9,129.7,77.3z"/>
			</g>
			<g>
				<path class="st0" d="M151.2,52.7h-17.4c-3.1,0.3-5.6,1.1-7.4,2.5s-3.2,3.1-4.3,5.1c-0.6,1.3-1,2.6-1.2,4.1h2.6
					c0.1-0.8,0.3-1.6,0.6-2.3c0.5-1.4,1.3-2.6,2.4-3.7c1-1.1,2.1-1.9,3.2-2.4s2.4-0.8,3.9-0.8h20.2V50h-2.6L151.2,52.7L151.2,52.7z"
					/>
			</g>
			<g>
				<path class="st0" d="M13.2,48.3c0.4-0.3,0.9-0.7,1.4-1h3.6c1.2-0.8,2.6-1.5,4.2-2.2c2.2-0.9,4.7-1.4,7.6-1.5h61.2
					c2.4,0.1,4.3,0.6,5.7,1.3c1.3,0.6,2.4,1.4,3.5,2.4h-3.8c0.1,0.1,0.2,0.2,0.3,0.3c0.9,0.9,1.6,1.7,2.1,2.4h3.3
					c-0.4-1-1-1.9-1.7-2.7h3.6c-0.5-0.6-1-1.1-1.6-1.7c-1.4-1.3-3.1-2.4-5-3.3c-1.9-0.9-4-1.3-6.2-1.3h-62c-2.4,0-5.2,0.6-8.5,1.9
					c-2.8,1.1-5.2,2.5-7.2,4.3h-3.6c-0.4,0.3-0.8,0.7-1.1,1c-0.5,0.5-1,1.1-1.5,1.7h3.6C11.8,49.4,12.4,48.9,13.2,48.3z"/>
			</g>
			<g>
				<rect x="148.5" y="47.3" class="st0" width="2.6" height="2.7"/>
			</g>
			<g>
				<path class="st0" d="M67.3,86.3h2.4v-2.7h-2.4V61.4l-1.6-1.8H54.2l-1.6,1.8v7.3h2.3v2.7h-2.3v12.2h1.8v2.7h-1.8v4.2l1.6,1.8
					h11.5l1.6-1.8V86.3z M64.8,86.3v3.4h-9.6v-3.4H57v-2.7h-1.8V71.4h2.3v-2.7h-2.3v-6.5h9.6v21.4h2.4v2.7H64.8z"/>
			</g>
			<g>
				<polygon class="st0" points="3.1,54.3 6.8,54.3 6.8,51.5 1.2,51.5 1.2,53.5 0,53.5 0,56.6 3.1,56.6 				"/>
			</g>
			<g>
				<rect x="154" y="83.6" class="st0" width="2.6" height="2.7"/>
			</g>
		</g>
		<g>
			<g>
				<g>
					<path class="st0" d="M4.3,98.8c0,0.6,0.1,1.2,0.4,1.8c0.1,0.2,0.3,0.5,0.5,0.7s0.4,0.5,0.7,0.7s0.6,0.4,1,0.5
						c0.4,0.2,0.8,0.2,1.3,0.3h3.1v-1.6h-3c-0.5-0.1-1-0.2-1.3-0.4s-0.6-0.5-0.7-0.9c-0.2-0.3-0.2-0.7-0.2-1.1
						c0-0.4,0.1-0.8,0.2-1.1C6.5,97.3,6.7,97,7,96.8s0.7-0.4,1.3-0.4h3v-1.6H8.2c-0.5,0-0.9,0.1-1.3,0.3c-0.4,0.2-0.7,0.3-1,0.5
						S5.4,96,5.2,96.3C5,96.5,4.9,96.8,4.7,97C4.5,97.5,4.3,98.1,4.3,98.8z M11,100.2H9.9c-0.4,0-0.7-0.1-1.1-0.2
						c-0.3-0.1-0.6-0.4-0.8-0.9h2.4L11,100.2z"/>
				</g>
			</g>
			<g>
				<g>
					<path class="st0" d="M22,96.4c0-0.1,0-0.2-0.1-0.4c-0.1-0.1-0.2-0.3-0.4-0.5s-0.4-0.3-0.7-0.5c-0.2-0.1-0.6-0.2-1-0.2h-6.4v1.6
						L22,96.4L22,96.4z M13.6,102.8h1.7V98h-1.7V102.8z M16.6,99.4l3.4,3.4h2l-3.2-3.2h1c0.5,0,0.9-0.1,1.2-0.3s0.5-0.4,0.7-0.6
						c0.2-0.2,0.3-0.5,0.4-0.8h-5.5V99.4z"/>
				</g>
			</g>
			<g>
				<path class="st0" d="M25.3,102.8l1.2-3.4h0.8l0.4,1.1h1.5l-1.9-5.7h-0.6l-3,8L25.3,102.8L25.3,102.8z M29.6,101.5h-2.7
					c0.1,0.3,0.3,0.5,0.4,0.7s0.3,0.3,0.6,0.4c0.2,0.1,0.6,0.2,1,0.2h1.2L29.6,101.5z"/>
			</g>
			<g>
				<path class="st0" d="M33.7,102.8v-3.6h2v-1.1l-2.9-3.3h-0.7v8H33.7z M38.7,94.8v3.6h-2v1.1l2.9,3.3h0.7v-8L38.7,94.8L38.7,94.8z
					"/>
			</g>
			<g>
				<path class="st0" d="M42,99h1.7v-2.6h1.5c0.3,0,0.6,0.1,0.9,0.3s0.5,0.4,0.7,0.6c0.2,0.2,0.3,0.5,0.4,0.8s0.1,0.5,0.1,0.7
					c0,0.4-0.1,0.8-0.2,1.1c-0.1,0.1-0.1,0.3-0.2,0.4c-0.1,0.1-0.2,0.3-0.4,0.4c-0.1,0.1-0.3,0.2-0.5,0.3s-0.4,0.1-0.7,0.2h-3.2v1.6
					h3.1c0.5,0,0.9-0.1,1.3-0.3s0.7-0.3,0.9-0.5c0.3-0.2,0.5-0.4,0.7-0.7c0.2-0.2,0.3-0.5,0.5-0.7c0.3-0.6,0.4-1.2,0.5-1.8
					c0-0.7-0.1-1.3-0.4-1.8s-0.6-0.9-1-1.3c-0.4-0.3-0.8-0.6-1.2-0.7c-0.4-0.2-0.8-0.2-1.1-0.2h-3.2V99H42z"/>
			</g>
			<g>
				<path class="st0" d="M64.3,96.4c0-0.1,0-0.2-0.1-0.4c-0.1-0.1-0.2-0.3-0.4-0.5c-0.2-0.2-0.4-0.3-0.7-0.5c-0.2-0.1-0.6-0.2-1-0.2
					h-6.4v1.6L64.3,96.4L64.3,96.4z M55.8,102.8h1.7V98h-1.7V102.8z M58.8,99.4l3.4,3.4h2L61,99.6h1c0.5,0,0.9-0.1,1.2-0.3
					c0.3-0.2,0.5-0.4,0.7-0.6c0.2-0.2,0.3-0.5,0.4-0.8h-5.4v1.5H58.8z"/>
			</g>
			<g>
				<path class="st0" d="M71,102.8c0.4,0,0.7-0.1,0.9-0.2c0.3-0.1,0.5-0.3,0.6-0.5c0.2-0.2,0.3-0.4,0.4-0.7c0.1-0.2,0.1-0.4,0.1-0.6
					v-6h-1.7v5.8c0,0.2-0.1,0.3-0.2,0.4c-0.1,0.1-0.2,0.2-0.4,0.2h-2.1c-0.1,0-0.2-0.1-0.4-0.2c-0.1-0.1-0.2-0.2-0.2-0.4v-5.8h-1.7
					v6c0,0.2,0.1,0.4,0.1,0.6c0.1,0.2,0.2,0.4,0.4,0.6c0.2,0.2,0.4,0.4,0.6,0.5c0.2,0.2,0.6,0.2,0.9,0.2L71,102.8L71,102.8z"/>
			</g>
			<g>
				<path class="st0" d="M76.8,102.8v-3.6h2v-1.1l-2.9-3.3h-0.7v8H76.8z M81.8,94.8v3.6h-2v1.1l2.9,3.3h0.7v-8L81.8,94.8L81.8,94.8z
					"/>
			</g>
			<g>
				<path class="st0" d="M87.3,102.8v-3.6h2v-1.1l-2.9-3.3h-0.8v8H87.3z M92.3,94.8v3.6h-2v1.1l2.9,3.3h0.7v-8L92.3,94.8L92.3,94.8z
					"/>
			</g>
			<g>
				<path class="st0" d="M96.1,102.8h1.7v-8h-1.7V102.8z"/>
			</g>
			<g>
				<path class="st0" d="M101.6,102.8v-3.6h2v-1.1l-2.9-3.3H100v8H101.6z M106.5,94.8v3.6h-2v1.1l2.9,3.3h0.7v-8L106.5,94.8
					L106.5,94.8z"/>
			</g>
			<g>
				<path class="st0" d="M110.4,98.8c0,0.6,0.1,1.2,0.4,1.8c0.1,0.2,0.3,0.5,0.5,0.7s0.4,0.5,0.7,0.7c0.3,0.2,0.6,0.4,1,0.5
					c0.4,0.2,0.8,0.2,1.3,0.3h3.1v-1.6h-3c-0.5-0.1-1-0.2-1.3-0.4s-0.6-0.5-0.7-0.9c-0.2-0.3-0.2-0.7-0.2-1.1c0-0.4,0.1-0.8,0.2-1.1
					c0.2-0.4,0.4-0.7,0.7-0.9c0.3-0.2,0.7-0.4,1.3-0.4h3v-1.6h-3.1c-0.5,0-0.9,0.1-1.3,0.3s-0.7,0.3-1,0.5s-0.5,0.4-0.7,0.7
					c-0.2,0.2-0.3,0.5-0.5,0.7C110.5,97.5,110.4,98.1,110.4,98.8z M117,100.2h-1.1c-0.4,0-0.7-0.1-1.1-0.2c-0.3-0.1-0.6-0.4-0.8-0.9
					h2.4L117,100.2z"/>
			</g>
			<g>
				<path class="st0" d="M124.7,98.8c0,0.6,0.1,1.2,0.4,1.8c0.1,0.2,0.3,0.5,0.5,0.7s0.4,0.5,0.7,0.7c0.3,0.2,0.6,0.4,1,0.5
					c0.4,0.2,0.8,0.2,1.3,0.3h3.1v-1.6h-3c-0.5-0.1-1-0.2-1.3-0.4s-0.6-0.5-0.7-0.9c-0.2-0.3-0.2-0.7-0.2-1.1c0-0.4,0.1-0.8,0.2-1.1
					c0.2-0.4,0.4-0.7,0.7-0.9c0.3-0.2,0.7-0.4,1.3-0.4h3v-1.6h-3.1c-0.5,0-0.9,0.1-1.3,0.3s-0.7,0.3-1,0.5s-0.5,0.4-0.7,0.7
					c-0.2,0.2-0.3,0.5-0.5,0.7C124.8,97.5,124.7,98.1,124.7,98.8z"/>
			</g>
			<g>
				<path class="st0" d="M138.6,101.2H136c-0.1,0-0.2-0.1-0.4-0.2c-0.1-0.1-0.2-0.3-0.2-0.5v-5.8h-1.7v6c0,0.2,0,0.4,0.1,0.6
					c0.1,0.2,0.2,0.4,0.4,0.6c0.2,0.2,0.4,0.4,0.6,0.6c0.3,0.2,0.6,0.2,0.9,0.3h2.8v-1.6H138.6z"/>
			</g>
			<g>
				<path class="st0" d="M145.2,102.8c0.4,0,0.7-0.1,0.9-0.2c0.3-0.1,0.5-0.3,0.6-0.5c0.2-0.2,0.3-0.4,0.4-0.7
					c0.1-0.2,0.1-0.4,0.1-0.6v-6h-1.6v5.8c0,0.2-0.1,0.3-0.2,0.4c-0.1,0.1-0.2,0.2-0.4,0.2h-2.1c-0.1,0-0.2-0.1-0.4-0.2
					c-0.1-0.1-0.2-0.2-0.2-0.4v-5.8h-1.7v6c0,0.2,0.1,0.4,0.1,0.6c0.1,0.2,0.2,0.4,0.4,0.6c0.2,0.2,0.4,0.4,0.6,0.5
					c0.2,0.2,0.6,0.2,0.9,0.2L145.2,102.8L145.2,102.8z"/>
			</g>
			<g>
				<path class="st0" d="M155.6,94.8h-6.2v1.6h8.3c-0.1-0.3-0.3-0.6-0.5-0.8s-0.5-0.4-0.7-0.5C156.2,94.8,155.9,94.8,155.6,94.8z
					 M152.7,98v1.7h1.4v1.3h-3v-3h-1.7v4.8h8.3c0-0.2-0.1-0.4-0.2-0.7s-0.3-0.5-0.6-0.8c-0.3-0.3-1-0.4-2-0.4v-1.3
					c0.6,0,1.1-0.1,1.5-0.3s0.6-0.4,0.8-0.6c0.2-0.2,0.4-0.5,0.5-0.8h-5V98z"/>
			</g>
		</g>
	</g>
</g>
</svg>
