<svg width="841" height="551" viewBox="0 0 841 551" fill="none" xmlns="http://www.w3.org/2000/svg">
<g filter="url(#filter0_d)">
<rect x="4" width="833" height="543" fill="#FFEED3"/>
</g>
<g clip-path="url(#clip0)">
<path d="M594.534 586.007C738.635 586.007 855.451 562.705 855.451 533.961C855.451 505.217 738.635 481.915 594.534 481.915C450.434 481.915 333.618 505.217 333.618 533.961C333.618 562.705 450.434 586.007 594.534 586.007Z" fill="#3F3D56"/>
<path d="M629.826 517.267C629.826 517.267 609.234 512.013 605.355 512.403C601.475 512.793 611.239 494.424 617.742 496.666C624.245 498.909 632.926 504.793 637.882 496.471C642.838 488.15 645.617 483.676 651.668 484.124C657.718 484.571 666.072 480.539 672.111 484.124C678.15 487.708 682.386 492.113 690.728 491.923C699.069 491.734 706.965 473.818 713.474 480.987C719.983 488.155 727.753 494.711 733.858 492.331C739.962 489.951 746.947 493.529 752.504 497.561C758.061 501.593 767.843 499.798 771.543 496.666C775.244 493.535 778.047 491.287 785.948 491.734C793.849 492.181 818.939 497.561 828.233 504.277C837.526 510.993 816.155 519.509 805.927 519.509C795.699 519.509 793.849 522.193 785.02 526.225C776.19 530.257 761.78 523.988 751.558 530.704C741.336 537.42 728.324 527.125 710.665 530.704C693.007 534.283 696.725 539.215 686.503 535.636C676.282 532.058 679.994 530.704 665.126 529.809C650.257 528.915 633.991 532.052 632.599 526.225C631.206 520.398 621.919 519.062 616.338 517.267C610.757 515.472 629.826 517.267 629.826 517.267Z" fill="#3F3D56"/>
<path d="M804.612 502.172C806.397 499.012 804.374 495.135 802.066 492.319C799.757 489.503 796.937 486.584 796.997 482.977C797.086 477.815 802.768 474.77 807.307 472.028C810.678 470 813.786 467.591 816.565 464.854C817.732 463.803 818.695 462.56 819.409 461.183C820.349 459.165 820.326 456.87 820.266 454.662C820.072 447.299 819.693 439.941 819.13 432.588" stroke="#3F3D56" stroke-width="4" stroke-miterlimit="10"/>
<path d="M827.763 432.187C827.699 430.839 827.285 429.528 826.557 428.375C825.829 427.222 824.811 426.265 823.598 425.591L821.73 429.159L821.789 424.84C820.895 424.587 819.965 424.479 819.034 424.519C817.391 424.597 815.809 425.143 814.487 426.088C813.165 427.032 812.163 428.333 811.607 429.826C811.051 431.319 810.966 432.937 811.363 434.476C811.761 436.015 812.622 437.406 813.838 438.474C815.055 439.542 816.572 440.239 818.199 440.477C819.826 440.714 821.489 440.482 822.979 439.81C824.469 439.137 825.719 438.054 826.572 436.697C827.424 435.341 827.841 433.771 827.769 432.187H827.763Z" fill="#57B793"/>
<path d="M812.87 486.664C811.995 488.301 810.562 489.597 808.812 490.336C807.063 491.076 805.103 491.213 803.261 490.725C801.419 490.237 799.806 489.153 798.695 487.656C797.583 486.159 797.039 484.338 797.153 482.5C797.268 480.662 798.035 478.918 799.325 477.56C800.615 476.202 802.35 475.313 804.24 475.041C806.129 474.77 808.058 475.133 809.703 476.069C811.348 477.005 812.609 478.458 813.275 480.184L808.057 484.296L813.799 483.017C813.793 484.286 813.475 485.536 812.87 486.664Z" fill="#57B793"/>
<path d="M808.747 471.036C806.673 471.175 804.62 470.562 802.992 469.316C801.363 468.071 800.276 466.283 799.945 464.305C799.614 462.326 800.063 460.3 801.203 458.624C802.342 456.948 804.091 455.744 806.106 455.247L806.064 458.562L807.95 454.955C809.047 454.901 810.144 455.057 811.179 455.413C812.213 455.77 813.164 456.32 813.977 457.032C814.79 457.744 815.449 458.604 815.915 459.563C816.382 460.521 816.647 461.559 816.696 462.617C816.745 463.546 816.624 464.476 816.339 465.364C815.836 466.949 814.836 468.346 813.477 469.361C812.118 470.377 810.465 470.962 808.747 471.036Z" fill="#57B793"/>
<path d="M829.018 458.035C827.736 458.08 826.461 457.84 825.291 457.332C824.122 456.824 823.09 456.063 822.276 455.108C821.462 454.152 820.887 453.029 820.598 451.824C820.308 450.62 820.311 449.367 820.606 448.164C820.901 446.961 821.48 445.839 822.299 444.888C823.117 443.936 824.153 443.179 825.325 442.676C826.496 442.173 827.773 441.938 829.054 441.989C830.336 442.039 831.588 442.375 832.713 442.969L831.237 446.869L834.272 444.058C835.898 445.494 836.867 447.492 836.967 449.616C837.007 450.361 836.937 451.109 836.759 451.835C836.347 453.541 835.367 455.07 833.97 456.189C832.572 457.308 830.833 457.957 829.018 458.035Z" fill="#57B793"/>
<path opacity="0.1" d="M826.638 434.332C824.71 434.532 822.836 435.112 820.903 435.226C818.969 435.341 816.845 434.899 815.625 433.448C814.965 432.668 814.632 431.682 814.078 430.828C813.55 430.034 812.826 429.378 811.972 428.918C811.468 429.933 811.191 431.039 811.16 432.164C811.128 433.289 811.342 434.407 811.787 435.448C812.233 436.488 812.9 437.426 813.746 438.201C814.592 438.977 815.598 439.572 816.698 439.949C817.798 440.325 818.968 440.475 820.132 440.388C821.296 440.3 822.428 439.978 823.455 439.442C824.481 438.906 825.379 438.168 826.091 437.276C826.802 436.383 827.311 435.357 827.584 434.263C827.271 434.274 826.956 434.297 826.638 434.332Z" fill="black"/>
<path opacity="0.1" d="M829.018 458.035C827.581 458.097 826.151 457.8 824.868 457.174C823.584 456.547 822.49 455.612 821.691 454.459C820.893 453.305 820.416 451.973 820.308 450.59C820.2 449.207 820.464 447.82 821.075 446.565C821.74 446.988 822.314 447.531 822.765 448.165C823.36 449.031 823.723 450.034 824.425 450.826C825.722 452.3 827.941 452.782 829.958 452.695C831.975 452.609 833.921 452.053 835.908 451.875C836.188 451.875 836.503 451.835 836.753 451.829C836.342 453.535 835.364 455.065 833.967 456.185C832.571 457.306 830.833 457.955 829.018 458.035Z" fill="black"/>
<path opacity="0.1" d="M808.747 471.036C807.321 471.104 805.902 470.817 804.624 470.203C803.346 469.59 802.254 468.67 801.451 467.532C800.648 466.395 800.162 465.077 800.039 463.706C799.917 462.335 800.162 460.957 800.751 459.704C801.445 460.138 802.05 460.692 802.536 461.338C803.184 462.221 803.589 463.242 804.321 464.057C805.731 465.565 808.099 466.098 810.235 466.052C812.371 466.006 814.292 465.519 816.345 465.364C815.842 466.95 814.841 468.347 813.48 469.363C812.12 470.378 810.466 470.963 808.747 471.036Z" fill="black"/>
<path opacity="0.1" d="M812.87 486.664C811.967 488.61 810.299 490.13 808.233 490.889C806.167 491.649 803.873 491.587 801.854 490.716C799.836 489.845 798.259 488.237 797.471 486.246C796.683 484.255 796.748 482.043 797.651 480.098C798.337 480.534 798.953 481.065 799.477 481.675C800.275 482.604 800.798 483.665 801.715 484.542C803.422 486.16 806.177 486.836 808.634 486.888C810.05 486.894 811.464 486.82 812.87 486.664Z" fill="black"/>
<path d="M792.016 498.53C792.016 498.53 798.609 498.335 800.596 496.97C802.583 495.605 810.711 493.982 811.228 496.167C811.746 498.353 821.129 507.064 813.692 507.099C806.254 507.133 796.401 505.986 794.42 504.804C792.439 503.623 792.016 498.53 792.016 498.53Z" fill="#656380"/>
<path opacity="0.2" d="M813.84 506.341C806.397 506.399 796.55 505.194 794.569 504.047C793.058 503.158 792.457 499.981 792.254 498.513H792.034C792.034 498.513 792.451 503.64 794.414 504.822C796.378 506.003 806.242 507.156 813.686 507.116C815.833 507.116 816.571 506.364 816.536 505.275C816.22 505.917 815.423 506.324 813.84 506.341Z" fill="black"/>
<path d="M451.089 229.761C451.046 229.344 451.11 228.923 451.274 228.534C451.756 227.708 453.017 227.932 453.969 228.167C457.8 229.096 461.834 228.253 465.773 228.471C469.712 228.689 474.156 230.587 474.948 234.315C477.81 232.361 480.276 229.917 482.224 227.106C483.319 225.529 484.271 223.722 484.122 221.83C483.908 219.1 481.534 217.058 479.333 215.326L472.788 210.164C471.927 209.4 470.932 208.79 469.849 208.364C468.337 207.865 466.683 208.1 465.089 208.1C460.329 208.1 455.23 206.012 450.982 208.1C449.197 208.977 447.876 210.48 446.591 211.948L440.737 218.629C440.294 219.054 439.973 219.582 439.802 220.161C439.636 220.975 440.07 221.778 440.219 222.598C440.499 224.089 439.826 225.678 440.344 227.112C441.195 229.492 444.187 229.83 446.02 231.189C446.704 231.7 447.775 233.42 448.584 233.403C450.036 233.386 451.047 230.857 451.089 229.761Z" fill="#3F3D56"/>
<path d="M452.053 245.716C451.988 247.574 450.863 249.226 449.78 250.769C448.334 252.822 446.805 254.955 444.521 256.102C456.003 261.946 469.379 263.306 481.873 259.899C483.878 259.326 486.246 258.133 486.127 256.12C483.747 255.494 481.284 254.846 479.261 253.464C476.846 251.813 475.251 249.243 474.222 246.582C473.193 243.921 472.669 241.076 471.949 238.306C471.902 238.022 471.774 237.756 471.58 237.538C471.253 237.312 470.85 237.21 470.45 237.251L462.525 237.114C459.27 237.114 455.736 237.039 452.713 238.37C448.953 240.033 452.16 242.631 452.053 245.716Z" fill="#FFC0C6"/>
<path opacity="0.1" d="M452.053 245.716C451.988 247.574 450.863 249.226 449.78 250.769C448.334 252.822 446.805 254.955 444.521 256.102C456.003 261.946 469.379 263.306 481.873 259.899C483.878 259.326 486.246 258.133 486.127 256.12C483.747 255.494 481.284 254.846 479.261 253.464C476.846 251.813 475.251 249.243 474.222 246.582C473.193 243.921 472.669 241.076 471.949 238.306C471.902 238.022 471.774 237.756 471.58 237.538C471.253 237.312 470.85 237.21 470.45 237.251L462.525 237.114C459.27 237.114 455.736 237.039 452.713 238.37C448.953 240.033 452.16 242.631 452.053 245.716Z" fill="black"/>
<path d="M445.157 507.374C443.206 510.241 440.653 512.667 438.511 515.403C436.369 518.139 434.579 521.327 434.555 524.751C434.526 524.969 434.548 525.19 434.619 525.398C434.69 525.606 434.809 525.797 434.965 525.955C435.209 526.107 435.491 526.192 435.78 526.202L444.051 527.223C445.308 527.434 446.589 527.476 447.858 527.349C449.225 527.089 450.542 526.627 451.761 525.978C452.694 525.626 453.505 525.03 454.106 524.258C454.504 523.627 454.611 522.853 454.992 522.21C456.14 520.266 459.032 520.352 461.329 520.691C461.989 514.778 460.293 508.882 458.61 503.159C458.537 502.807 458.38 502.477 458.152 502.195C457.851 501.916 457.48 501.718 457.075 501.622C455.093 500.996 450.304 498.548 448.638 499.695C447.418 500.543 446.145 505.854 445.157 507.374Z" fill="#575A88"/>
<path d="M485.033 519.033C486.621 518.316 488.317 517.393 490.03 517.771C492.446 518.293 493.523 521.046 495.576 522.359C496.837 523.179 498.396 523.42 499.901 523.61C504.537 524.188 509.209 524.454 513.883 524.407C515.376 524.407 517.256 524.063 517.619 522.686C517.982 521.31 516.608 520.214 515.388 519.498C512.741 517.932 509.981 516.55 507.13 515.363C505.729 514.864 504.404 514.185 503.191 513.344C501.15 511.755 500.157 509.266 499.247 506.898C498.515 504.994 497.842 500.881 496.343 499.442C494.701 497.888 492.494 498.92 490.435 499.356C487.234 500.033 483.486 500.503 481.427 503.273C478.416 507.328 476.102 523.019 485.033 519.033Z" fill="#575A88"/>
<path d="M460.853 245.636C469.538 245.636 476.578 238.85 476.578 230.478C476.578 222.107 469.538 215.32 460.853 215.32C452.168 215.32 445.127 222.107 445.127 230.478C445.127 238.85 452.168 245.636 460.853 245.636Z" fill="#FFC0C6"/>
<path d="M451.114 248.583C450.218 248.026 449.159 247.83 448.135 248.032C447.632 248.22 447.159 248.49 446.736 248.833L437.994 255.267C436.741 256.085 435.623 257.112 434.686 258.308C433.189 260.446 432.952 263.289 433.147 265.933C433.581 271.898 435.875 277.524 437.12 283.357C438.365 289.189 438.365 295.844 434.784 300.516C434.168 301.186 433.654 301.952 433.259 302.786C433.046 303.498 432.949 304.243 432.973 304.989C432.843 307.781 432.899 310.579 433.14 313.363C433.532 316.955 434.539 320.444 435.085 324.007C436.043 330.074 435.784 336.296 436.525 342.371C436.492 342.777 436.54 343.186 436.666 343.572C436.792 343.958 436.993 344.312 437.256 344.612C437.519 344.912 437.838 345.151 438.194 345.314C438.55 345.477 438.935 345.56 439.323 345.559C443.646 346.223 448.012 346.525 452.38 346.462C457.436 346.462 462.486 346.169 467.535 345.889L490.517 344.619C490.844 344.663 491.176 344.631 491.491 344.526C491.805 344.422 492.094 344.246 492.338 344.011C492.581 343.777 492.772 343.49 492.898 343.17C493.025 342.849 493.083 342.504 493.069 342.158C495.083 332.006 497.112 321.671 496.16 311.358C495.545 304.696 493.699 298.239 491.964 291.804C490.566 286.589 489.223 281.116 490.272 275.806C490.971 272.302 492.671 269.062 493.111 265.522C493.366 263.679 493.213 261.8 492.665 260.029C492.117 258.259 491.188 256.644 489.95 255.311C487.376 252.718 483.621 251.734 481.054 249.134C480.349 248.293 479.582 247.512 478.76 246.798C478.341 246.447 477.836 246.226 477.303 246.161C476.77 246.096 476.231 246.19 475.746 246.431C475.273 246.783 474.881 247.242 474.599 247.775C472.361 251.345 469.004 257.229 464.283 256.303C459.178 255.341 455.611 250.86 451.114 248.583Z" fill="#CFD2CD"/>
<path d="M491.571 351.001C490.179 352.005 489.144 353.788 489.786 355.342C491.678 355.668 493.628 355.407 495.355 354.597C496.468 354.075 497.854 353.341 498.818 354.098C499.13 354.387 499.372 354.74 499.526 355.13C500.569 357.261 501.833 359.284 503.298 361.169C504.357 360.688 505.47 360.16 506.107 359.214C506.491 358.569 506.739 357.858 506.838 357.12C507.212 355.275 507.488 353.412 507.665 351.54C507.79 350.181 507.814 348.673 506.85 347.663C502.715 343.362 495.004 348.529 491.571 351.001Z" fill="#FFC0C6"/>
<path d="M450.107 224.072C450.065 223.656 450.128 223.237 450.292 222.85C450.774 222.025 452.035 222.277 452.987 222.478C456.819 223.412 460.853 222.569 464.791 222.787C468.73 223.005 473.175 224.904 473.966 228.631C476.829 226.676 479.297 224.233 481.248 221.422C482.343 219.845 483.295 218.039 483.146 216.146C482.932 213.416 480.558 211.375 478.357 209.643L471.812 204.481C470.951 203.718 469.956 203.111 468.873 202.686C467.362 202.187 465.708 202.422 464.113 202.422C459.353 202.422 454.254 200.335 450.006 202.422C448.221 203.305 446.901 204.808 445.609 206.276L439.761 212.957C439.319 213.381 438.996 213.906 438.821 214.483C438.654 215.297 439.088 216.106 439.243 216.92C439.517 218.411 438.85 220.006 439.362 221.44C440.213 223.82 443.212 224.152 445.044 225.517C445.728 226.028 446.793 227.748 447.609 227.725C449.054 227.702 450.066 225.173 450.107 224.072Z" fill="#3F3D56"/>
<path d="M488.942 254.818C490.588 254.443 492.297 254.403 493.96 254.699C495.624 254.995 497.205 255.621 498.604 256.538C503.102 259.509 504.952 264.935 506.517 269.97L510.022 281.262C511.557 286.212 513.104 291.207 513.461 296.363C513.788 301.048 513.121 305.74 512.455 310.391C511.533 316.831 513.704 323.891 513.734 330.389C513.734 337.845 513.687 345.753 509.748 352.182C509.584 351.62 509.283 351.104 508.869 350.678C508.454 350.251 507.94 349.927 507.368 349.734C506.228 349.358 505.032 349.165 503.828 349.16L493.356 348.512C494.249 347.059 495.017 345.538 495.653 343.964C499.669 334.019 498.128 322.905 496.527 312.352C496.401 311.346 496.203 310.35 495.933 309.37C494.877 305.606 494.636 301.672 495.224 297.814C495.464 296.069 495.526 294.306 495.409 292.549C495.391 291.807 495.227 291.076 494.927 290.393C494.619 289.831 494.23 289.313 493.773 288.856L491.655 286.562C491.482 279.622 490.352 272.631 489.233 265.772C488.69 262.144 488.592 258.468 488.942 254.818Z" fill="#CFD2CD"/>
<path d="M400.392 200.279C400.392 200.279 396.628 204.094 392.183 194.087C387.739 184.081 366.274 160.03 366.274 160.03C366.274 160.03 363.497 156.86 374.049 151.58C384.601 146.3 399.011 127 399.011 127C399.011 127 423.056 153.666 425.409 166.873C427.762 180.08 422.611 182.321 413.771 189.336C404.931 196.352 400.392 200.279 400.392 200.279Z" fill="#3F3D56"/>
<path d="M478.529 314.302L405.347 187.173L411.559 185.091L483.503 311.67C483.685 311.991 483.797 312.343 483.835 312.706C483.874 313.07 483.836 313.437 483.725 313.786C483.615 314.135 483.433 314.46 483.19 314.74C482.948 315.021 482.65 315.252 482.313 315.42C481.656 315.746 480.893 315.811 480.186 315.602C479.479 315.393 478.885 314.927 478.529 314.302Z" fill="#656380"/>
<path d="M448.477 281.847C450.393 277.896 448.43 273.336 447.121 269.161C446.078 265.843 445.456 262.415 445.27 258.953C445.146 257.864 445.271 256.761 445.639 255.724C445.834 255.21 446.177 254.76 446.628 254.428C447.079 254.095 447.62 253.894 448.186 253.849C449.894 256.312 450.576 259.306 450.096 262.233C451.204 261.958 452.329 261.745 453.463 261.597C454.934 261.406 456.427 261.722 457.68 262.489C458.933 263.256 459.865 264.425 460.311 265.789C462.197 271.616 462.84 277.833 460.21 283.281C459.372 284.893 458.399 286.437 457.301 287.898L451.565 295.973C451.172 296.546 450.691 297.12 450 297.217C449.31 297.315 448.59 296.713 448.085 296.156C446.341 294.258 443.247 291.494 443.586 288.879C443.926 286.263 447.335 284.17 448.477 281.847Z" fill="#FFC0C6"/>
<path d="M435.221 257.49C429.396 256.854 422.727 258.374 419.68 263.225C418.151 265.674 417.77 268.611 417.503 271.455C417.128 275.441 416.908 279.439 416.7 283.43L415.575 304.444C415.438 306.956 415.307 309.473 415.26 311.985C415.124 313.949 415.344 315.921 415.908 317.812C416.628 319.848 418.056 321.569 419.478 323.243C420.9 324.918 422.679 326.644 424.767 326.157C425.622 325.885 426.399 325.423 427.034 324.809L431.794 320.84C435.031 318.162 438.303 315.443 440.766 312.083C441.956 310.465 442.932 308.716 444.134 307.11C447.668 302.385 453.106 298.8 454.968 293.26C453.183 293.168 450.589 292.601 449.768 291.075C449.334 290.266 449.274 289.303 448.793 288.529C448.061 287.347 446.413 286.705 446.169 285.351C441.492 288.982 437.577 293.197 433.841 297.722L435.358 292.039C435.464 291.505 435.694 291.001 436.03 290.565C436.563 290.115 437.165 289.749 437.815 289.481C439.666 288.403 440.368 286.172 440.743 284.118C442.415 274.889 440.446 265.391 435.221 257.49Z" fill="#CFD2CD"/>
<path d="M724.745 477.595L725.84 477.007L726.164 476.832C723.765 476.491 721.577 475.474 719.96 473.95C718.342 472.426 717.391 470.485 717.264 468.447C717.136 466.409 717.84 464.395 719.258 462.737C720.677 461.079 722.726 459.876 725.068 459.325L725.014 463.029L727.44 458.999C728.845 458.944 730.249 459.122 731.573 459.522C732.896 459.923 734.113 460.538 735.153 461.333C736.193 462.128 737.036 463.087 737.634 464.155C738.232 465.224 738.574 466.38 738.639 467.56C738.639 467.734 738.639 467.9 738.639 468.07C739.494 467.289 740.207 466.406 740.753 465.45C741.783 463.525 741.799 461.352 741.722 458.705C741.558 453.467 741.29 448.187 740.939 442.921C738.406 442.686 736.056 441.7 734.313 440.141C732.569 438.582 731.545 436.552 731.427 434.416C731.41 434.145 731.41 433.874 731.427 433.603C731.427 433.534 731.427 433.465 731.427 433.4C731.427 433.139 731.476 432.881 731.525 432.624C731.522 432.583 731.522 432.541 731.525 432.5C731.563 432.284 731.618 432.073 731.678 431.861C731.678 431.783 731.728 431.705 731.75 431.627C731.826 431.397 731.908 431.167 732.007 430.947C732.04 430.873 732.073 430.804 732.111 430.731C732.188 430.565 732.27 430.405 732.357 430.244C732.401 430.161 732.445 430.074 732.494 429.991L732.533 429.927C733.666 428.051 735.546 426.568 737.848 425.735C740.149 424.903 742.725 424.773 745.129 425.368L745.057 430.189L747.456 426.209C749.01 426.96 750.314 428.027 751.248 429.312C752.182 430.597 752.716 432.058 752.801 433.561C752.845 434.34 752.766 435.12 752.566 435.882C752.566 435.946 752.522 436.006 752.506 436.07C752.489 436.134 752.434 436.309 752.396 436.424C752.358 436.539 752.292 436.723 752.232 436.883C752.171 437.044 752.144 437.104 752.095 437.214C752.045 437.325 751.936 437.527 751.854 437.674C751.805 437.761 751.761 437.853 751.711 437.945C751.575 438.175 751.427 438.404 751.268 438.625C751.213 438.703 751.147 438.777 751.093 438.85C750.978 438.997 750.863 439.149 750.737 439.31C750.611 439.47 750.578 439.484 750.496 439.567C750.413 439.65 750.26 439.815 750.134 439.935C750.008 440.054 749.953 440.1 749.86 440.183C749.767 440.265 749.597 440.412 749.455 440.523L749.176 440.743L748.688 441.083L748.436 441.249C748.179 441.405 747.922 441.552 747.648 441.708L747.495 441.782C747.269 441.897 747.037 442.003 746.799 442.099L746.492 442.214C746.301 442.287 746.104 442.361 745.901 442.42L745.55 442.526C745.353 442.586 745.156 442.636 744.953 442.682L744.592 442.76C744.373 442.806 744.148 442.843 743.924 442.875H743.88C744.026 445.099 744.158 447.322 744.274 449.543C744.912 448.442 745.812 447.463 746.917 446.665C748.022 445.866 749.311 445.266 750.703 444.901C752.094 444.535 753.561 444.413 755.011 444.54C756.462 444.667 757.866 445.042 759.138 445.641L757.248 449.998L761.142 446.859C763.23 448.46 764.475 450.692 764.603 453.062C764.652 453.895 764.559 454.728 764.329 455.539C763.844 457.297 762.74 458.893 761.159 460.116C759.578 461.34 757.594 462.136 755.466 462.401C753.338 462.665 751.165 462.385 749.229 461.598C747.293 460.811 745.685 459.553 744.614 457.988C744.614 458.213 744.614 458.448 744.614 458.664C744.685 460.998 744.773 463.902 743.387 466.475C742.396 468.147 741.061 469.659 739.444 470.941C738.469 471.773 737.462 472.577 736.432 473.358C735.413 474.501 734.087 475.426 732.56 476.056C730.862 477.152 729.106 478.18 727.292 479.139L726.344 479.718C725.326 480.251 724.28 480.793 723.256 481.358L723.803 481.321C726.073 481.232 728.317 481.751 730.212 482.803C732.107 483.854 733.555 485.384 734.345 487.171L727.653 491.766L735.019 490.332C735.012 491.849 734.549 493.339 733.673 494.665C732.796 495.991 731.534 497.11 730.005 497.917C728.475 498.725 726.727 499.195 724.923 499.285C723.119 499.374 721.317 499.08 719.685 498.429C719.855 498.599 720.019 498.773 720.183 498.948L721.158 499.968C725.539 504.6 726.728 508.992 724.57 512.342L721.947 511.152C724.044 507.89 720.89 503.717 718.82 501.503C718.507 501.167 718.184 500.832 717.861 500.496C715.079 497.597 711.925 494.307 712.001 490.272C712.056 484.189 719.093 480.531 724.745 477.595Z" fill="#43A94D"/>
<path d="M598.745 460.595L599.84 460.007L600.164 459.832C597.765 459.491 595.577 458.474 593.96 456.95C592.342 455.426 591.391 453.485 591.264 451.447C591.136 449.409 591.84 447.395 593.258 445.737C594.677 444.079 596.726 442.876 599.068 442.325L599.014 446.029L601.44 441.999C602.845 441.944 604.249 442.122 605.573 442.522C606.896 442.923 608.113 443.538 609.153 444.333C610.193 445.128 611.036 446.087 611.634 447.155C612.232 448.224 612.574 449.38 612.639 450.56C612.639 450.734 612.639 450.9 612.639 451.07C613.494 450.289 614.207 449.406 614.753 448.45C615.783 446.525 615.799 444.352 615.722 441.705C615.558 436.467 615.29 431.187 614.939 425.921C612.406 425.686 610.056 424.7 608.313 423.141C606.569 421.582 605.545 419.552 605.427 417.416C605.41 417.145 605.41 416.874 605.427 416.603C605.427 416.534 605.427 416.465 605.427 416.4C605.427 416.139 605.476 415.881 605.525 415.624C605.522 415.583 605.522 415.541 605.525 415.5C605.563 415.284 605.618 415.073 605.678 414.861C605.678 414.783 605.728 414.705 605.75 414.627C605.826 414.397 605.908 414.167 606.007 413.947C606.04 413.873 606.073 413.804 606.111 413.731C606.188 413.565 606.27 413.405 606.357 413.244C606.401 413.161 606.445 413.074 606.494 412.991L606.533 412.927C607.666 411.051 609.546 409.568 611.848 408.735C614.149 407.903 616.725 407.773 619.129 408.368L619.057 413.189L621.456 409.209C623.01 409.96 624.314 411.027 625.248 412.312C626.182 413.597 626.716 415.058 626.801 416.561C626.845 417.34 626.766 418.12 626.566 418.882C626.566 418.946 626.522 419.006 626.506 419.07C626.489 419.134 626.434 419.309 626.396 419.424C626.358 419.539 626.292 419.723 626.232 419.883C626.171 420.044 626.144 420.104 626.095 420.214C626.045 420.325 625.936 420.527 625.854 420.674C625.805 420.761 625.761 420.853 625.711 420.945C625.575 421.175 625.427 421.404 625.268 421.625C625.213 421.703 625.147 421.777 625.093 421.85C624.978 421.997 624.863 422.149 624.737 422.31C624.611 422.47 624.578 422.484 624.496 422.567C624.413 422.65 624.26 422.815 624.134 422.935C624.008 423.054 623.953 423.1 623.86 423.183C623.767 423.265 623.597 423.412 623.455 423.523L623.176 423.743L622.688 424.083L622.436 424.249C622.179 424.405 621.922 424.552 621.648 424.708L621.495 424.782C621.269 424.897 621.037 425.003 620.799 425.099L620.492 425.214C620.301 425.287 620.104 425.361 619.901 425.42L619.55 425.526C619.353 425.586 619.156 425.636 618.953 425.682L618.592 425.76C618.373 425.806 618.148 425.843 617.924 425.875H617.88C618.026 428.099 618.158 430.322 618.274 432.543C618.912 431.442 619.812 430.463 620.917 429.665C622.022 428.866 623.311 428.266 624.703 427.901C626.094 427.535 627.561 427.413 629.011 427.54C630.462 427.667 631.866 428.042 633.138 428.641L631.248 432.998L635.142 429.859C637.23 431.46 638.475 433.692 638.603 436.062C638.652 436.895 638.559 437.728 638.329 438.539C637.844 440.297 636.74 441.893 635.159 443.116C633.578 444.34 631.594 445.136 629.466 445.401C627.338 445.665 625.165 445.385 623.229 444.598C621.293 443.811 619.685 442.553 618.614 440.988C618.614 441.213 618.614 441.448 618.614 441.664C618.685 443.998 618.773 446.902 617.387 449.475C616.396 451.147 615.061 452.659 613.444 453.941C612.469 454.773 611.462 455.577 610.432 456.358C609.413 457.501 608.087 458.426 606.56 459.056C604.862 460.152 603.106 461.18 601.292 462.139L600.344 462.718C599.326 463.251 598.28 463.793 597.256 464.358L597.803 464.321C600.073 464.232 602.317 464.751 604.212 465.803C606.107 466.854 607.555 468.384 608.345 470.171L601.653 474.766L609.019 473.332C609.012 474.849 608.549 476.339 607.673 477.665C606.796 478.991 605.534 480.11 604.005 480.917C602.475 481.725 600.727 482.195 598.923 482.285C597.119 482.374 595.317 482.08 593.685 481.429C593.855 481.599 594.019 481.773 594.183 481.948L595.158 482.968C599.539 487.6 600.728 491.992 598.57 495.342L595.947 494.152C598.044 490.89 594.89 486.717 592.82 484.503C592.507 484.167 592.184 483.832 591.861 483.496C589.079 480.597 585.925 477.307 586.001 473.272C586.056 467.189 593.093 463.531 598.745 460.595Z" fill="#80C76E"/>
<path d="M576.946 415.196L575.264 414.313C575.1 414.231 574.941 414.143 574.782 414.056C578.37 413.54 581.642 412.016 584.06 409.734C586.478 407.452 587.9 404.547 588.091 401.497C588.282 398.448 587.232 395.434 585.112 392.952C582.992 390.469 579.929 388.666 576.425 387.837L576.508 393.383L572.877 387.35H572.833C570.728 387.268 568.625 387.534 566.644 388.134C564.662 388.734 562.841 389.655 561.284 390.846C559.726 392.036 558.464 393.472 557.568 395.072C556.673 396.672 556.162 398.404 556.064 400.17C556.064 400.427 556.064 400.68 556.064 400.933C554.781 399.762 553.713 398.438 552.893 397.004C551.354 394.128 551.327 390.87 551.447 386.895C551.688 379.047 552.093 371.139 552.619 363.259C556.41 362.905 559.926 361.428 562.536 359.094C565.146 356.761 566.678 353.723 566.858 350.526C566.858 350.112 566.858 349.708 566.858 349.304V349C566.825 348.61 566.781 348.224 566.71 347.842C566.71 347.778 566.71 347.718 566.672 347.654C566.606 347.332 566.524 347.015 566.431 346.698C566.398 346.579 566.365 346.464 566.327 346.344C566.212 346 566.091 345.664 565.943 345.329C565.9 345.219 565.845 345.113 565.79 345.003C565.675 344.755 565.555 344.516 565.423 344.277C565.352 344.148 565.286 344.024 565.215 343.9C565.195 343.869 565.176 343.836 565.16 343.803C563.878 341.682 561.948 339.883 559.566 338.592C557.185 337.3 554.438 336.562 551.606 336.451C549.823 336.384 548.04 336.564 546.327 336.985L546.431 344.203L542.844 338.23C539.889 339.644 537.551 341.815 536.171 344.424C534.792 347.033 534.443 349.944 535.177 352.732C535.177 352.823 535.237 352.915 535.264 353.012C535.313 353.191 535.368 353.366 535.423 353.54C535.478 353.715 535.587 354 535.675 354.206C535.763 354.413 535.806 354.537 535.883 354.698C535.987 354.937 536.113 355.158 536.239 355.401C536.31 355.539 536.376 355.677 536.453 355.81C536.655 356.155 536.874 356.495 537.115 356.826C537.197 356.945 537.29 357.055 537.378 357.166C537.553 357.391 537.723 357.625 537.926 357.827C538.041 357.961 538.167 358.085 538.287 358.213C538.408 358.342 538.643 358.585 538.835 358.765L539.24 359.137C539.437 359.312 539.64 359.482 539.848 359.647L540.27 359.973C540.505 360.148 540.752 360.318 541.004 360.479C541.129 360.561 541.25 360.649 541.381 360.731C541.759 360.966 542.148 361.191 542.553 361.393C542.63 361.434 542.712 361.467 542.789 361.503C543.128 361.669 543.473 361.83 543.824 361.963L544.289 362.137C544.58 362.248 544.87 362.353 545.171 362.445C545.346 362.505 545.522 362.556 545.719 362.606C546.014 362.689 546.316 362.767 546.617 362.836L547.165 362.955C547.499 363.02 547.833 363.075 548.167 363.125H548.232C548.006 366.452 547.809 369.779 547.641 373.106C546.685 371.458 545.337 369.992 543.681 368.798C542.025 367.603 540.095 366.705 538.011 366.158C535.926 365.612 533.73 365.429 531.558 365.62C529.386 365.811 527.283 366.372 525.379 367.27L528.216 373.786L522.383 369.09C520.834 370.276 519.579 371.708 518.69 373.302C517.801 374.896 517.296 376.622 517.203 378.381C517.128 379.627 517.265 380.875 517.608 382.089C518.338 384.716 519.992 387.098 522.356 388.926C524.72 390.754 527.684 391.943 530.864 392.34C534.044 392.736 537.292 392.321 540.187 391.149C543.082 389.976 545.491 388.1 547.099 385.765C547.099 386.105 547.099 386.445 547.061 386.78C546.956 390.277 546.82 394.624 548.895 398.507C550.303 401.14 552.57 403.272 554.804 405.188C556.265 406.438 557.769 407.645 559.317 408.809C560.837 410.523 562.821 411.909 565.106 412.852C567.661 414.491 570.294 416.023 573.003 417.447L574.7 418.329C576.223 419.124 577.789 419.942 579.322 420.788C579.054 420.788 578.775 420.742 578.512 420.733C575.113 420.598 571.752 421.374 568.913 422.949C566.075 424.523 563.907 426.814 562.723 429.491L572.74 436.333L561.716 434.191C561.721 436.467 562.413 438.704 563.727 440.695C565.042 442.685 566.935 444.364 569.232 445.574C571.529 446.784 574.153 447.487 576.861 447.616C579.569 447.745 582.271 447.297 584.717 446.313C584.465 446.57 584.218 446.827 583.972 447.089C583.479 447.604 582.986 448.114 582.51 448.619C575.987 455.553 574.175 462.129 577.4 467.146L581.332 465.368C578.189 460.484 582.915 454.235 586.015 450.945C586.48 450.444 586.962 449.943 587.45 449.437C591.617 445.095 596.338 440.169 596.212 434.132C595.944 425.075 585.412 419.611 576.946 415.196Z" fill="#4B6F28"/>
<path d="M675.825 469.34L675.211 468.832C675.151 468.784 675.093 468.734 675.035 468.684C676.346 468.387 677.54 467.509 678.424 466.195C679.307 464.882 679.826 463.21 679.896 461.454C679.966 459.698 679.582 457.963 678.808 456.534C678.033 455.105 676.915 454.067 675.635 453.59L675.665 456.783L674.339 453.309H674.323C673.555 453.262 672.787 453.416 672.063 453.761C671.339 454.106 670.674 454.637 670.106 455.322C669.537 456.007 669.076 456.834 668.749 457.755C668.422 458.676 668.235 459.673 668.199 460.69C668.199 460.838 668.199 460.983 668.199 461.129C667.731 460.455 667.341 459.693 667.041 458.867C666.479 457.211 666.469 455.336 666.513 453.048C666.601 448.529 666.749 443.977 666.941 439.44C668.326 439.237 669.61 438.387 670.563 437.043C671.516 435.7 672.076 433.951 672.141 432.11C672.141 431.872 672.141 431.639 672.141 431.407V431.232C672.129 431.007 672.113 430.785 672.087 430.566C672.087 430.528 672.087 430.494 672.073 430.457C672.049 430.272 672.019 430.089 671.985 429.907C671.973 429.838 671.961 429.772 671.947 429.703C671.905 429.505 671.861 429.312 671.807 429.119C671.791 429.055 671.771 428.994 671.751 428.931C671.709 428.788 671.665 428.65 671.617 428.513C671.591 428.439 671.567 428.367 671.541 428.296C671.534 428.278 671.527 428.259 671.521 428.24C671.053 427.019 670.348 425.984 669.478 425.24C668.609 424.496 667.606 424.071 666.571 424.008C665.92 423.969 665.269 424.073 664.643 424.315L664.681 428.47L663.371 425.032C662.292 425.846 661.438 427.095 660.934 428.598C660.431 430.1 660.303 431.775 660.571 433.38C660.571 433.433 660.593 433.486 660.603 433.541C660.621 433.645 660.641 433.745 660.661 433.846C660.681 433.946 660.721 434.11 660.753 434.229C660.785 434.348 660.801 434.42 660.829 434.512C660.867 434.65 660.913 434.777 660.959 434.917C660.985 434.996 661.009 435.076 661.037 435.152C661.111 435.351 661.191 435.547 661.279 435.737C661.309 435.806 661.343 435.869 661.375 435.933C661.439 436.062 661.501 436.197 661.575 436.314C661.617 436.39 661.663 436.462 661.707 436.536C661.751 436.61 661.837 436.75 661.907 436.853L662.055 437.068C662.127 437.168 662.201 437.266 662.277 437.361L662.431 437.549C662.517 437.65 662.607 437.747 662.699 437.84C662.745 437.888 662.789 437.938 662.837 437.985C662.975 438.12 663.117 438.25 663.265 438.366C663.293 438.39 663.323 438.409 663.351 438.43C663.475 438.525 663.601 438.618 663.729 438.694L663.899 438.795C664.005 438.858 664.111 438.919 664.221 438.972C664.285 439.007 664.349 439.036 664.421 439.065C664.529 439.112 664.639 439.157 664.749 439.197L664.949 439.266C665.071 439.303 665.193 439.335 665.315 439.364H665.339C665.257 441.279 665.185 443.194 665.123 445.109C664.774 444.161 664.282 443.317 663.677 442.629C663.072 441.941 662.368 441.424 661.606 441.11C660.845 440.795 660.043 440.69 659.25 440.8C658.456 440.91 657.689 441.233 656.993 441.75L658.029 445.501L655.899 442.797C655.333 443.48 654.875 444.305 654.55 445.222C654.226 446.14 654.041 447.134 654.007 448.146C653.98 448.863 654.03 449.582 654.155 450.281C654.422 451.793 655.026 453.164 655.889 454.217C656.752 455.269 657.835 455.954 658.996 456.182C660.158 456.41 661.344 456.171 662.401 455.496C663.459 454.821 664.338 453.741 664.925 452.397C664.925 452.593 664.925 452.788 664.911 452.981C664.873 454.994 664.823 457.497 665.581 459.732C666.095 461.248 666.923 462.475 667.739 463.578C668.273 464.298 668.822 464.993 669.387 465.663C669.942 466.65 670.667 467.447 671.501 467.991C672.435 468.934 673.396 469.816 674.385 470.636L675.005 471.144C675.561 471.601 676.133 472.072 676.693 472.559C676.595 472.559 676.493 472.533 676.397 472.527C675.156 472.45 673.929 472.897 672.892 473.803C671.855 474.709 671.064 476.028 670.631 477.569L674.289 481.508L670.263 480.275C670.265 481.585 670.518 482.873 670.998 484.019C671.478 485.165 672.17 486.131 673.008 486.828C673.847 487.525 674.806 487.929 675.795 488.004C676.783 488.078 677.77 487.82 678.663 487.253C678.571 487.402 678.481 487.55 678.391 487.7C678.211 487.997 678.031 488.29 677.857 488.581C675.475 492.573 674.813 496.358 675.991 499.247L677.427 498.223C676.279 495.411 678.005 491.814 679.137 489.92C679.307 489.632 679.483 489.343 679.661 489.052C681.184 486.552 682.908 483.717 682.862 480.241C682.764 475.027 678.917 471.882 675.825 469.34Z" fill="#52893E"/>
<path d="M615.551 471.494L616.2 471.097L616.391 470.979C614.97 470.749 613.674 470.063 612.716 469.034C611.757 468.006 611.194 466.696 611.118 465.32C611.043 463.945 611.46 462.586 612.3 461.467C613.14 460.348 614.354 459.536 615.742 459.165L615.71 461.664L617.147 458.945C617.98 458.907 618.812 459.027 619.596 459.298C620.38 459.568 621.1 459.983 621.716 460.52C622.333 461.056 622.832 461.703 623.186 462.424C623.541 463.145 623.743 463.926 623.782 464.722C623.782 464.839 623.782 464.951 623.782 465.066C624.289 464.539 624.711 463.943 625.034 463.298C625.644 461.999 625.654 460.532 625.609 458.746C625.511 455.211 625.352 451.648 625.145 448.094C623.644 447.936 622.252 447.27 621.219 446.218C620.186 445.166 619.579 443.796 619.509 442.354C619.499 442.172 619.499 441.988 619.509 441.806C619.509 441.759 619.509 441.713 619.509 441.669C619.509 441.492 619.538 441.319 619.567 441.145C619.566 441.117 619.566 441.089 619.567 441.061C619.59 440.916 619.623 440.773 619.658 440.63C619.658 440.578 619.687 440.525 619.7 440.472C619.746 440.317 619.794 440.162 619.853 440.013C619.872 439.964 619.892 439.917 619.915 439.867C619.96 439.756 620.009 439.647 620.061 439.539C620.086 439.483 620.112 439.424 620.142 439.368L620.164 439.325C620.836 438.059 621.95 437.058 623.313 436.496C624.676 435.934 626.203 435.847 627.627 436.249L627.584 439.502L629.006 436.816C629.926 437.323 630.699 438.043 631.252 438.91C631.806 439.777 632.122 440.763 632.172 441.778C632.198 442.303 632.151 442.83 632.033 443.344C632.033 443.387 632.007 443.427 631.997 443.471C631.987 443.514 631.955 443.632 631.932 443.71C631.909 443.787 631.87 443.911 631.835 444.02C631.799 444.128 631.783 444.168 631.754 444.243C631.724 444.317 631.66 444.454 631.611 444.553C631.582 444.612 631.556 444.674 631.527 444.736C631.445 444.891 631.358 445.046 631.264 445.195C631.231 445.248 631.192 445.297 631.16 445.347C631.092 445.446 631.024 445.548 630.949 445.657C630.874 445.765 630.855 445.775 630.806 445.831C630.758 445.886 630.667 445.998 630.592 446.079C630.517 446.159 630.485 446.19 630.43 446.246C630.375 446.302 630.274 446.401 630.19 446.476L630.024 446.624L629.736 446.854L629.586 446.966C629.434 447.071 629.281 447.17 629.119 447.276L629.028 447.325C628.895 447.403 628.757 447.475 628.616 447.539L628.435 447.617C628.321 447.666 628.204 447.716 628.084 447.756L627.876 447.828C627.76 447.868 627.643 447.902 627.523 447.933L627.309 447.986C627.179 448.017 627.046 448.042 626.913 448.063H626.887C626.973 449.564 627.051 451.064 627.121 452.563C627.498 451.82 628.031 451.159 628.686 450.621C629.341 450.082 630.104 449.677 630.929 449.43C631.753 449.184 632.622 449.101 633.481 449.187C634.341 449.273 635.173 449.526 635.926 449.93L634.807 452.87L637.113 450.752C638.35 451.832 639.088 453.338 639.164 454.938C639.193 455.5 639.138 456.062 639.002 456.61C638.715 457.796 638.06 458.873 637.123 459.699C636.187 460.525 635.012 461.062 633.751 461.24C632.49 461.419 631.203 461.23 630.056 460.699C628.909 460.168 627.956 459.319 627.322 458.262C627.322 458.414 627.322 458.572 627.322 458.718C627.364 460.293 627.416 462.253 626.595 463.99C626.008 465.118 625.217 466.138 624.259 467.004C623.681 467.565 623.084 468.108 622.474 468.635C621.871 469.406 621.085 470.03 620.181 470.455C619.175 471.195 618.134 471.889 617.059 472.536L616.498 472.927C615.895 473.286 615.275 473.652 614.668 474.034L614.993 474.009C616.337 473.949 617.667 474.299 618.79 475.009C619.912 475.718 620.77 476.751 621.238 477.956L617.274 481.057L621.637 480.09C621.633 481.113 621.359 482.119 620.84 483.014C620.32 483.909 619.573 484.664 618.667 485.209C617.76 485.754 616.725 486.071 615.656 486.132C614.587 486.192 613.52 485.993 612.553 485.554C612.653 485.669 612.751 485.786 612.848 485.904L613.426 486.593C616.021 489.718 616.725 492.683 615.447 494.944L613.893 494.14C615.135 491.939 613.267 489.123 612.04 487.628C611.855 487.402 611.664 487.176 611.472 486.949C609.824 484.993 607.955 482.772 608.001 480.05C608.033 475.944 612.202 473.476 615.551 471.494Z" fill="#34B851"/>
<path d="M586.119 483.393L585.284 482.8C585.202 482.745 585.123 482.686 585.044 482.628C586.826 482.281 588.451 481.257 589.652 479.725C590.853 478.192 591.559 476.241 591.654 474.193C591.749 472.145 591.227 470.121 590.174 468.453C589.122 466.786 587.6 465.575 585.86 465.018L585.901 468.743L584.098 464.691H584.076C583.031 464.636 581.986 464.815 581.002 465.218C580.018 465.62 579.113 466.239 578.34 467.039C577.566 467.838 576.939 468.803 576.494 469.877C576.05 470.952 575.796 472.115 575.747 473.301C575.747 473.474 575.747 473.644 575.747 473.814C575.11 473.027 574.579 472.138 574.172 471.175C573.408 469.243 573.394 467.055 573.454 464.385C573.574 459.114 573.775 453.803 574.036 448.51C575.919 448.273 577.665 447.281 578.962 445.714C580.258 444.146 581.019 442.106 581.108 439.959C581.108 439.681 581.108 439.409 581.108 439.138V438.934C581.092 438.672 581.07 438.412 581.035 438.156C581.035 438.113 581.035 438.073 581.016 438.03C580.983 437.814 580.942 437.601 580.896 437.388C580.88 437.308 580.864 437.231 580.844 437.15C580.787 436.919 580.728 436.694 580.654 436.468C580.632 436.394 580.605 436.323 580.578 436.249C580.521 436.082 580.461 435.922 580.396 435.762C580.36 435.675 580.328 435.592 580.292 435.508C580.282 435.487 580.273 435.466 580.265 435.444C579.628 434.019 578.669 432.811 577.487 431.943C576.304 431.076 574.94 430.58 573.533 430.506C572.648 430.461 571.762 430.582 570.911 430.864L570.963 435.712L569.181 431.7C567.713 432.65 566.552 434.108 565.867 435.86C565.182 437.613 565.009 439.568 565.373 441.44C565.373 441.502 565.403 441.563 565.416 441.628C565.441 441.749 565.468 441.866 565.495 441.983C565.523 442.1 565.577 442.292 565.62 442.431C565.664 442.57 565.686 442.653 565.724 442.761C565.775 442.921 565.838 443.069 565.901 443.233C565.936 443.326 565.969 443.418 566.007 443.508C566.107 443.739 566.216 443.968 566.336 444.19C566.377 444.27 566.423 444.344 566.466 444.418C566.553 444.569 566.638 444.727 566.738 444.863C566.795 444.952 566.858 445.035 566.918 445.122C566.978 445.208 567.095 445.372 567.19 445.492L567.391 445.742C567.489 445.859 567.59 445.974 567.693 446.085L567.903 446.304C568.02 446.421 568.142 446.535 568.267 446.643C568.33 446.699 568.389 446.757 568.455 446.813C568.642 446.97 568.836 447.122 569.037 447.257C569.075 447.285 569.116 447.307 569.154 447.331C569.322 447.443 569.494 447.551 569.668 447.64L569.899 447.757C570.043 447.831 570.187 447.902 570.337 447.964C570.424 448.004 570.511 448.038 570.609 448.072C570.756 448.128 570.905 448.18 571.055 448.226L571.327 448.307C571.493 448.35 571.659 448.387 571.825 448.421H571.857C571.745 450.655 571.647 452.89 571.564 455.124C571.089 454.017 570.419 453.033 569.597 452.23C568.774 451.428 567.816 450.825 566.78 450.458C565.745 450.091 564.654 449.968 563.576 450.096C562.497 450.225 561.452 450.602 560.507 451.205L561.916 455.581L559.019 452.427C558.249 453.224 557.626 454.185 557.185 455.256C556.743 456.327 556.492 457.486 556.446 458.667C556.409 459.504 556.477 460.342 556.647 461.157C557.009 462.922 557.831 464.522 559.005 465.749C560.179 466.977 561.651 467.776 563.231 468.042C564.81 468.308 566.424 468.03 567.862 467.242C569.3 466.455 570.496 465.195 571.294 463.626C571.294 463.855 571.294 464.083 571.275 464.308C571.224 466.657 571.156 469.576 572.187 472.184C572.886 473.952 574.012 475.384 575.122 476.671C575.847 477.511 576.594 478.321 577.363 479.103C578.118 480.254 579.103 481.185 580.238 481.819C581.507 482.92 582.815 483.948 584.16 484.905L585.003 485.498C585.76 486.032 586.538 486.581 587.299 487.149C587.166 487.149 587.027 487.118 586.897 487.112C585.208 487.021 583.539 487.543 582.129 488.6C580.719 489.658 579.643 491.196 579.055 492.994L584.03 497.589L578.554 496.151C578.557 497.679 578.901 499.182 579.553 500.519C580.206 501.856 581.147 502.983 582.287 503.796C583.428 504.609 584.732 505.081 586.077 505.168C587.421 505.254 588.764 504.953 589.978 504.292C589.853 504.465 589.731 504.638 589.608 504.814C589.364 505.159 589.119 505.502 588.882 505.842C585.643 510.498 584.742 514.915 586.344 518.285L588.297 517.09C586.736 513.81 589.083 509.613 590.623 507.403C590.854 507.067 591.094 506.73 591.336 506.391C593.406 503.474 595.75 500.166 595.688 496.111C595.554 490.028 590.324 486.359 586.119 483.393Z" fill="#409D31"/>
<path d="M697.034 466.544L697.706 465.987L697.905 465.821C696.432 465.497 695.087 464.534 694.093 463.09C693.1 461.645 692.515 459.806 692.437 457.874C692.359 455.943 692.791 454.034 693.662 452.463C694.534 450.892 695.793 449.752 697.232 449.23L697.198 452.74L698.689 448.921C699.552 448.869 700.415 449.038 701.228 449.417C702.041 449.797 702.789 450.38 703.428 451.133C704.067 451.886 704.585 452.795 704.952 453.808C705.32 454.82 705.529 455.916 705.57 457.034C705.57 457.199 705.57 457.356 705.57 457.517C706.095 456.777 706.533 455.941 706.868 455.035C707.501 453.21 707.511 451.151 707.464 448.642C707.363 443.678 707.198 438.675 706.983 433.685C705.427 433.462 703.983 432.528 702.912 431.05C701.84 429.572 701.211 427.649 701.138 425.624C701.128 425.368 701.128 425.11 701.138 424.854C701.138 424.788 701.138 424.723 701.138 424.662C701.138 424.414 701.169 424.17 701.199 423.926C701.197 423.887 701.197 423.848 701.199 423.809C701.223 423.604 701.256 423.404 701.293 423.203C701.293 423.129 701.323 423.055 701.337 422.981C701.384 422.763 701.435 422.546 701.495 422.337C701.515 422.267 701.535 422.202 701.559 422.132C701.606 421.975 701.657 421.823 701.71 421.67C701.737 421.592 701.764 421.509 701.795 421.431L701.818 421.37C702.514 419.593 703.67 418.187 705.083 417.398C706.497 416.609 708.08 416.486 709.557 417.05L709.513 421.618L710.987 417.847C711.942 418.559 712.743 419.57 713.317 420.788C713.89 422.005 714.219 423.39 714.271 424.814C714.298 425.553 714.249 426.292 714.126 427.014C714.126 427.074 714.099 427.131 714.089 427.192C714.079 427.253 714.045 427.418 714.022 427.527C713.998 427.636 713.958 427.81 713.921 427.963C713.884 428.115 713.867 428.172 713.837 428.276C713.806 428.381 713.739 428.572 713.689 428.712C713.658 428.795 713.631 428.882 713.601 428.969C713.517 429.186 713.426 429.404 713.329 429.613C713.295 429.687 713.254 429.757 713.221 429.827C713.15 429.966 713.08 430.11 713.002 430.262C712.925 430.414 712.905 430.427 712.854 430.506C712.804 430.584 712.709 430.741 712.632 430.854C712.555 430.967 712.521 431.011 712.464 431.089C712.407 431.168 712.302 431.307 712.215 431.412L712.043 431.621L711.744 431.943L711.589 432.1C711.431 432.248 711.273 432.387 711.104 432.535L711.01 432.605C710.872 432.714 710.729 432.815 710.583 432.905L710.395 433.014C710.277 433.084 710.156 433.153 710.031 433.21L709.816 433.31C709.695 433.367 709.574 433.415 709.449 433.458L709.227 433.532C709.092 433.576 708.954 433.611 708.817 433.641H708.79C708.879 435.749 708.96 437.855 709.032 439.96C709.424 438.917 709.976 437.989 710.655 437.232C711.335 436.476 712.126 435.907 712.981 435.561C713.836 435.214 714.737 435.098 715.628 435.219C716.52 435.34 717.382 435.695 718.163 436.263L717.003 440.391L719.395 437.417C720.678 438.934 721.442 441.048 721.521 443.295C721.551 444.084 721.495 444.874 721.353 445.642C721.055 447.309 720.377 448.82 719.405 449.98C718.434 451.14 717.215 451.894 715.908 452.145C714.601 452.395 713.265 452.13 712.076 451.384C710.887 450.639 709.899 449.446 709.24 447.963C709.24 448.177 709.24 448.399 709.24 448.603C709.284 450.815 709.338 453.567 708.487 456.006C707.878 457.59 707.058 459.023 706.064 460.239C705.465 461.027 704.846 461.789 704.214 462.529C703.588 463.612 702.773 464.488 701.835 465.085C700.792 466.124 699.713 467.098 698.598 468.007L698.016 468.556C697.39 469.061 696.748 469.575 696.118 470.11L696.455 470.076C697.849 469.991 699.228 470.483 700.392 471.479C701.557 472.476 702.446 473.925 702.932 475.619L698.82 479.973L703.346 478.615C703.341 480.052 703.057 481.464 702.518 482.721C701.98 483.977 701.205 485.038 700.265 485.803C699.325 486.568 698.251 487.014 697.143 487.099C696.034 487.183 694.927 486.904 693.925 486.287C694.029 486.449 694.13 486.614 694.231 486.779L694.83 487.746C697.521 492.136 698.252 496.299 696.926 499.473L695.314 498.345C696.603 495.253 694.665 491.299 693.393 489.201C693.201 488.883 693.003 488.565 692.804 488.247C691.095 485.499 689.157 482.381 689.204 478.558C689.238 472.793 693.561 469.327 697.034 466.544Z" fill="#3F8534"/>
<path d="M753.884 486.07L754.581 485.631L754.786 485.501C753.26 485.246 751.868 484.487 750.839 483.348C749.809 482.21 749.204 480.761 749.123 479.24C749.042 477.718 749.489 476.214 750.392 474.976C751.295 473.738 752.599 472.84 754.089 472.429L754.054 475.194L755.598 472.185C756.492 472.144 757.386 472.277 758.228 472.576C759.07 472.875 759.844 473.335 760.506 473.928C761.168 474.522 761.704 475.238 762.085 476.035C762.466 476.833 762.683 477.697 762.725 478.577C762.725 478.708 762.725 478.831 762.725 478.958C763.269 478.375 763.722 477.716 764.07 477.002C764.725 475.565 764.735 473.942 764.687 471.966C764.582 468.055 764.411 464.113 764.188 460.181C762.576 460.005 761.081 459.269 759.972 458.105C758.862 456.941 758.211 455.425 758.135 453.83C758.125 453.628 758.125 453.426 758.135 453.223C758.135 453.172 758.135 453.12 758.135 453.072C758.135 452.877 758.166 452.685 758.198 452.492C758.196 452.462 758.196 452.431 758.198 452.4C758.222 452.239 758.257 452.081 758.295 451.923C758.295 451.865 758.327 451.806 758.341 451.748C758.389 451.576 758.442 451.405 758.504 451.24C758.525 451.185 758.546 451.134 758.571 451.079C758.619 450.955 758.672 450.835 758.727 450.715C758.755 450.654 758.783 450.588 758.815 450.527L758.839 450.479C759.56 449.078 760.757 447.971 762.221 447.349C763.685 446.727 765.325 446.63 766.854 447.075L766.809 450.674L768.335 447.703C769.324 448.264 770.154 449.061 770.748 450.02C771.343 450.979 771.682 452.07 771.736 453.192C771.764 453.774 771.714 454.356 771.586 454.925C771.586 454.973 771.559 455.018 771.548 455.066C771.538 455.114 771.503 455.244 771.478 455.33C771.454 455.416 771.412 455.553 771.374 455.673C771.336 455.793 771.318 455.838 771.287 455.92C771.255 456.002 771.186 456.153 771.133 456.263C771.102 456.328 771.074 456.397 771.043 456.465C770.956 456.637 770.862 456.808 770.761 456.973C770.726 457.031 770.684 457.086 770.649 457.141C770.576 457.251 770.503 457.364 770.422 457.484C770.342 457.604 770.321 457.615 770.269 457.676C770.217 457.738 770.119 457.862 770.039 457.951C769.959 458.04 769.924 458.074 769.865 458.136C769.806 458.198 769.698 458.308 769.607 458.39L769.429 458.555L769.119 458.809L768.959 458.932C768.795 459.049 768.631 459.159 768.457 459.275L768.359 459.33C768.216 459.416 768.068 459.495 767.917 459.567L767.722 459.653C767.6 459.708 767.474 459.762 767.345 459.807L767.122 459.886C766.997 459.931 766.871 459.968 766.743 460.003L766.513 460.061C766.373 460.095 766.23 460.123 766.087 460.147H766.06C766.152 461.807 766.236 463.467 766.31 465.125C766.716 464.303 767.289 463.572 767.992 462.976C768.695 462.38 769.515 461.932 770.401 461.659C771.287 461.386 772.22 461.295 773.143 461.39C774.066 461.485 774.959 461.765 775.768 462.212L774.566 465.464L777.044 463.121C778.372 464.317 779.164 465.983 779.246 467.753C779.277 468.374 779.218 468.997 779.072 469.602C778.763 470.915 778.06 472.106 777.054 473.02C776.048 473.934 774.786 474.528 773.432 474.725C772.078 474.923 770.695 474.714 769.463 474.126C768.232 473.539 767.208 472.599 766.526 471.431C766.526 471.599 766.526 471.774 766.526 471.935C766.572 473.678 766.628 475.846 765.746 477.767C765.115 479.016 764.266 480.145 763.237 481.102C762.617 481.723 761.975 482.324 761.32 482.907C760.672 483.76 759.828 484.451 758.856 484.921C757.776 485.74 756.659 486.507 755.504 487.223L754.901 487.655C754.253 488.053 753.587 488.458 752.936 488.88L753.284 488.853C754.728 488.786 756.156 489.173 757.362 489.958C758.568 490.744 759.489 491.886 759.992 493.22L755.734 496.651L760.421 495.58C760.417 496.713 760.122 497.825 759.564 498.815C759.007 499.806 758.204 500.641 757.23 501.244C756.257 501.847 755.145 502.198 753.997 502.265C752.849 502.331 751.702 502.112 750.664 501.626C750.772 501.752 750.876 501.883 750.981 502.013L751.601 502.775C754.389 506.233 755.145 509.513 753.772 512.014L752.103 511.126C753.438 508.69 751.43 505.574 750.113 503.921C749.914 503.67 749.709 503.42 749.503 503.169C747.733 501.005 745.726 498.548 745.774 495.536C745.809 490.993 750.287 488.262 753.884 486.07Z" fill="#59AD44"/>
<path d="M651.333 469.823L650.547 469.298C650.471 469.249 650.396 469.197 650.322 469.145C651.999 468.838 653.529 467.931 654.659 466.574C655.79 465.216 656.454 463.488 656.543 461.674C656.633 459.86 656.142 458.067 655.151 456.591C654.16 455.114 652.728 454.041 651.09 453.548L651.129 456.847L649.431 453.258H649.411C648.427 453.209 647.444 453.368 646.518 453.725C645.591 454.081 644.74 454.63 644.012 455.338C643.284 456.046 642.694 456.9 642.275 457.852C641.857 458.804 641.618 459.834 641.572 460.884C641.572 461.037 641.572 461.188 641.572 461.338C640.972 460.642 640.473 459.854 640.09 459.001C639.37 457.29 639.358 455.352 639.414 452.988C639.527 448.319 639.716 443.615 639.962 438.927C641.734 438.716 643.377 437.838 644.597 436.45C645.817 435.061 646.534 433.254 646.618 431.352C646.618 431.106 646.618 430.866 646.618 430.625V430.445C646.602 430.213 646.582 429.983 646.549 429.756C646.549 429.718 646.549 429.682 646.531 429.644C646.5 429.453 646.462 429.264 646.418 429.075C646.403 429.004 646.387 428.936 646.37 428.865C646.316 428.66 646.259 428.46 646.19 428.261C646.17 428.195 646.144 428.132 646.119 428.067C646.065 427.919 646.009 427.777 645.947 427.635C645.914 427.558 645.883 427.485 645.85 427.411C645.84 427.392 645.832 427.373 645.824 427.353C645.225 426.091 644.322 425.021 643.209 424.253C642.096 423.485 640.812 423.045 639.488 422.98C638.655 422.94 637.821 423.047 637.02 423.297L637.069 427.591L635.392 424.038C634.011 424.879 632.918 426.17 632.273 427.722C631.628 429.275 631.465 431.006 631.808 432.664C631.808 432.719 631.836 432.774 631.849 432.831C631.872 432.938 631.898 433.042 631.923 433.146C631.949 433.249 632 433.419 632.041 433.542C632.082 433.665 632.102 433.739 632.138 433.834C632.187 433.976 632.246 434.108 632.305 434.253C632.338 434.335 632.369 434.417 632.405 434.496C632.499 434.701 632.602 434.903 632.714 435.1C632.753 435.171 632.796 435.237 632.837 435.302C632.919 435.436 632.998 435.576 633.093 435.696C633.147 435.775 633.206 435.849 633.262 435.925C633.318 436.002 633.429 436.147 633.518 436.253L633.708 436.475C633.8 436.579 633.894 436.68 633.992 436.778L634.189 436.972C634.299 437.076 634.414 437.177 634.532 437.273C634.591 437.322 634.647 437.374 634.709 437.423C634.885 437.563 635.067 437.697 635.256 437.817C635.292 437.842 635.331 437.861 635.366 437.883C635.525 437.981 635.687 438.077 635.85 438.156L636.068 438.26C636.204 438.325 636.339 438.388 636.48 438.443C636.562 438.478 636.644 438.509 636.736 438.539C636.874 438.588 637.015 438.634 637.156 438.675L637.412 438.746C637.568 438.785 637.724 438.817 637.88 438.847H637.911C637.805 440.826 637.713 442.805 637.635 444.784C637.188 443.804 636.558 442.932 635.783 442.222C635.009 441.511 634.107 440.977 633.133 440.652C632.158 440.327 631.132 440.218 630.117 440.331C629.101 440.445 628.118 440.779 627.228 441.313L628.554 445.189L625.828 442.395C625.104 443.101 624.517 443.953 624.101 444.901C623.686 445.85 623.45 446.876 623.406 447.922C623.371 448.664 623.435 449.406 623.595 450.128C623.937 451.691 624.71 453.108 625.815 454.196C626.92 455.283 628.306 455.991 629.792 456.226C631.278 456.462 632.797 456.215 634.15 455.518C635.504 454.82 636.629 453.704 637.381 452.315C637.381 452.517 637.381 452.72 637.363 452.919C637.315 454.999 637.251 457.585 638.221 459.895C638.879 461.461 639.939 462.729 640.983 463.869C641.666 464.613 642.369 465.331 643.093 466.023C643.803 467.043 644.731 467.867 645.799 468.429C646.993 469.404 648.224 470.315 649.49 471.162L650.284 471.687C650.995 472.16 651.728 472.646 652.444 473.149C652.319 473.149 652.188 473.122 652.066 473.117C650.477 473.037 648.905 473.498 647.579 474.435C646.252 475.371 645.238 476.734 644.685 478.326L649.367 482.397L644.214 481.123C644.216 482.476 644.54 483.807 645.154 484.991C645.769 486.176 646.654 487.174 647.728 487.894C648.801 488.614 650.028 489.032 651.294 489.109C652.56 489.186 653.823 488.919 654.966 488.334C654.848 488.487 654.733 488.64 654.618 488.796C654.388 489.102 654.157 489.405 653.934 489.706C650.885 493.831 650.038 497.742 651.546 500.727L653.384 499.669C651.915 496.763 654.124 493.046 655.573 491.089C655.79 490.791 656.016 490.493 656.244 490.192C658.192 487.609 660.398 484.679 660.34 481.087C660.214 475.7 655.291 472.45 651.333 469.823Z" fill="#779B3B"/>
<path d="M686.698 473.828L686.06 473.337C685.997 473.291 685.937 473.243 685.877 473.194C687.239 472.907 688.482 472.059 689.401 470.789C690.319 469.519 690.859 467.903 690.932 466.205C691.004 464.508 690.605 462.831 689.8 461.45C688.995 460.068 687.831 459.065 686.501 458.604L686.532 461.69L685.153 458.332H685.136C684.337 458.287 683.538 458.435 682.786 458.769C682.033 459.103 681.341 459.615 680.75 460.278C680.158 460.94 679.679 461.74 679.339 462.63C678.999 463.52 678.804 464.484 678.767 465.467C678.767 465.61 678.767 465.751 678.767 465.891C678.28 465.24 677.874 464.503 677.563 463.705C676.979 462.104 676.968 460.291 677.014 458.079C677.105 453.712 677.259 449.311 677.459 444.926C678.899 444.729 680.234 443.907 681.225 442.608C682.217 441.31 682.799 439.619 682.867 437.84C682.867 437.61 682.867 437.385 682.867 437.16V436.991C682.855 436.774 682.838 436.559 682.811 436.347C682.811 436.311 682.811 436.278 682.796 436.242C682.771 436.063 682.74 435.886 682.705 435.71C682.692 435.643 682.68 435.58 682.665 435.513C682.622 435.321 682.576 435.135 682.52 434.948C682.503 434.887 682.482 434.828 682.461 434.766C682.418 434.628 682.372 434.495 682.322 434.362C682.295 434.291 682.27 434.222 682.243 434.153C682.235 434.135 682.228 434.117 682.222 434.099C681.735 432.918 681.002 431.917 680.098 431.199C679.193 430.48 678.15 430.069 677.074 430.008C676.397 429.97 675.72 430.07 675.069 430.304L675.109 434.321L673.746 430.997C672.624 431.784 671.736 432.992 671.212 434.444C670.688 435.896 670.556 437.516 670.834 439.067C670.834 439.119 670.857 439.17 670.867 439.223C670.886 439.323 670.907 439.42 670.928 439.517C670.949 439.615 670.99 439.773 671.023 439.888C671.057 440.003 671.073 440.072 671.102 440.162C671.142 440.295 671.19 440.418 671.238 440.553C671.265 440.63 671.29 440.706 671.319 440.781C671.396 440.972 671.479 441.162 671.57 441.346C671.602 441.412 671.637 441.474 671.67 441.535C671.737 441.66 671.801 441.791 671.878 441.903C671.922 441.977 671.97 442.046 672.016 442.118C672.061 442.19 672.151 442.325 672.224 442.425L672.377 442.632C672.452 442.729 672.529 442.824 672.608 442.916L672.769 443.097C672.858 443.195 672.952 443.289 673.047 443.379C673.095 443.425 673.141 443.473 673.191 443.519C673.334 443.65 673.482 443.775 673.636 443.888C673.665 443.911 673.696 443.928 673.725 443.949C673.854 444.041 673.985 444.13 674.118 444.205L674.295 444.302C674.406 444.363 674.516 444.422 674.63 444.473C674.697 444.506 674.763 444.534 674.838 444.563C674.95 444.609 675.065 444.652 675.179 444.69L675.387 444.757C675.514 444.793 675.641 444.823 675.768 444.852H675.793C675.707 446.703 675.632 448.554 675.568 450.406C675.205 449.489 674.693 448.673 674.064 448.008C673.435 447.343 672.702 446.843 671.91 446.539C671.119 446.235 670.285 446.133 669.46 446.24C668.635 446.346 667.836 446.659 667.113 447.158L668.19 450.784L665.975 448.171C665.387 448.831 664.91 449.628 664.572 450.515C664.235 451.402 664.043 452.363 664.007 453.341C663.979 454.034 664.031 454.729 664.161 455.405C664.439 456.866 665.067 458.192 665.965 459.209C666.862 460.227 667.988 460.889 669.196 461.109C670.404 461.33 671.638 461.099 672.737 460.446C673.837 459.794 674.751 458.75 675.362 457.45C675.362 457.64 675.362 457.829 675.348 458.015C675.308 459.961 675.256 462.38 676.045 464.541C676.579 466.006 677.44 467.193 678.289 468.259C678.844 468.955 679.415 469.626 680.003 470.274C680.58 471.228 681.334 471.999 682.201 472.524C683.172 473.436 684.172 474.289 685.201 475.081L685.846 475.572C686.424 476.015 687.019 476.47 687.601 476.94C687.499 476.94 687.393 476.915 687.293 476.91C686.002 476.835 684.726 477.267 683.648 478.143C682.57 479.019 681.746 480.294 681.297 481.784L685.101 485.591L680.914 484.399C680.916 485.666 681.179 486.911 681.678 488.019C682.177 489.126 682.896 490.06 683.769 490.734C684.641 491.407 685.638 491.798 686.666 491.87C687.695 491.942 688.721 491.693 689.65 491.145C689.554 491.288 689.461 491.431 689.367 491.577C689.18 491.864 688.993 492.147 688.812 492.429C686.334 496.287 685.646 499.946 686.871 502.739L688.365 501.749C687.171 499.031 688.966 495.553 690.143 493.723C690.32 493.444 690.503 493.165 690.688 492.884C692.271 490.467 694.064 487.726 694.016 484.366C693.914 479.326 689.914 476.286 686.698 473.828Z" fill="#499536"/>
<path d="M763.285 420.596C764.949 417.694 765.809 414.401 765.775 411.056C765.775 402.436 760.445 395.456 753.855 395.456C747.265 395.456 741.935 402.456 741.935 411.056C741.902 414.401 742.761 417.694 744.425 420.596C742.793 423.51 741.935 426.795 741.935 430.136C741.935 433.476 742.793 436.761 744.425 439.676C742.793 442.59 741.935 445.875 741.935 449.216C741.935 452.557 742.793 455.841 744.425 458.756C742.793 461.669 741.935 464.952 741.935 468.291C741.935 471.63 742.793 474.913 744.425 477.826C742.762 480.728 741.903 484.021 741.935 487.366C741.935 495.986 747.275 502.976 753.855 502.976C760.435 502.976 765.775 495.976 765.775 487.366C765.808 484.021 764.948 480.728 763.285 477.826C764.918 474.913 765.775 471.63 765.775 468.291C765.775 464.952 764.918 461.669 763.285 458.756C764.918 455.841 765.775 452.557 765.775 449.216C765.775 445.875 764.918 442.59 763.285 439.676C764.918 436.761 765.775 433.476 765.775 430.136C765.775 426.795 764.918 423.51 763.285 420.596Z" fill="#3F3D56"/>
<path d="M709.225 242.366C707.596 240.291 706.112 238.106 704.785 235.826L736.115 230.676L702.225 230.936C698.979 223.861 697.209 216.2 697.021 208.418C696.834 200.637 698.234 192.899 701.135 185.676L746.595 209.266L704.675 178.466C708.606 171.686 713.89 165.787 720.199 161.137C726.508 156.488 733.706 153.186 741.346 151.438C748.986 149.69 756.904 149.534 764.607 150.978C772.31 152.423 779.633 155.437 786.121 159.834C792.609 164.23 798.122 169.915 802.318 176.535C806.514 183.154 809.303 190.566 810.51 198.31C811.718 206.054 811.319 213.963 809.338 221.546C807.357 229.129 803.836 236.222 798.995 242.386C801.537 245.611 803.723 249.101 805.515 252.796L764.845 273.926L808.225 259.346C811.275 268.347 812.03 277.967 810.422 287.334C808.814 296.701 804.893 305.518 799.015 312.986C805.642 321.41 809.765 331.528 810.912 342.185C812.059 352.841 810.185 363.605 805.502 373.246C800.82 382.888 793.519 391.017 784.435 396.704C775.35 402.391 764.848 405.407 754.13 405.407C743.412 405.407 732.91 402.391 723.826 396.704C714.741 391.017 707.44 382.888 702.758 373.246C698.076 363.605 696.201 352.841 697.348 342.185C698.495 331.528 702.618 321.41 709.245 312.986C701.328 302.919 697.024 290.483 697.024 277.676C697.024 264.869 701.328 252.433 709.245 242.366H709.225Z" fill="#57B894"/>
<path opacity="0.1" d="M811.225 277.676C811.244 290.488 806.935 302.931 798.995 312.986C805.622 321.41 809.745 331.528 810.892 342.184C812.039 352.841 810.164 363.605 805.482 373.246C800.8 382.887 793.499 391.016 784.414 396.704C775.33 402.391 764.828 405.407 754.11 405.407C743.392 405.407 732.89 402.391 723.806 396.704C714.721 391.016 707.42 382.887 702.738 373.246C698.056 363.605 696.181 352.841 697.328 342.184C698.475 331.528 702.598 321.41 709.225 312.986C701.565 303.266 811.225 271.266 811.225 277.676Z" fill="black"/>
<path d="M437.726 336.021C434.993 342.504 433.489 349.408 433.287 356.403C433.145 361.628 433.728 366.835 434.317 372.031C435.257 380.443 436.201 388.854 437.149 397.266C437.452 400.764 438.022 404.235 438.856 407.652C439.886 411.466 441.558 415.108 442.754 418.858C446.454 430.546 445.401 443.152 442.956 455.144C442.63 456.46 442.459 457.806 442.444 459.159C442.516 461.183 443.325 463.11 443.848 465.072C447.049 477.029 439.683 490.306 444.491 501.776C444.613 502.186 444.88 502.541 445.246 502.78C445.488 502.867 445.745 502.906 446.003 502.896C446.26 502.885 446.513 502.824 446.746 502.717C448.115 502.257 449.43 501.657 450.667 500.927C453.257 503.948 456.603 506.283 460.389 507.712C463.209 507.041 463.738 503.738 464.661 501.082C465.364 499.196 465.936 497.266 466.374 495.307C466.782 492.903 466.991 490.471 466.999 488.035L469.438 405.249L469.26 430.512C469.175 432.558 469.308 434.606 469.658 436.626C470.015 438.306 470.67 439.918 471.045 441.598C471.574 444.001 471.509 446.49 471.485 448.95C471.337 463.542 472.722 478.111 475.62 492.434C476.572 497.125 477.714 501.862 480.148 506.02C480.228 506.211 480.348 506.384 480.5 506.528C480.653 506.672 480.835 506.784 481.034 506.857C481.552 506.966 482.028 506.571 482.421 506.221C484.771 504.218 487.708 502.967 490.827 502.64C493.946 502.314 497.094 502.927 499.836 504.397C499.312 501.965 501.716 499.138 499.996 497.291C499.502 496.758 498.765 496.5 498.211 496.035C497.117 495.135 496.855 493.621 496.7 492.239C496.025 486.087 496.025 479.883 496.7 473.732C497.539 466.041 499.425 458.287 498.033 450.677C497.021 445.154 494.296 439.78 494.838 434.223C495.195 430.495 496.992 427.059 498.229 423.509C503.632 407.99 498.229 390.693 502.138 374.761C503.037 371.102 504.393 367.145 502.763 363.733L505.244 363.004L500.091 351.666C498.997 349.252 497.854 346.768 495.927 344.91C492.69 341.807 487.853 340.976 483.337 340.322L446.603 334.799C443.349 334.289 438.958 333.107 437.726 336.021Z" fill="#36A15E"/>
</g>
<path opacity="0.1" d="M464.175 537.791C669.82 537.791 837 552.455 837 508.329C837 464.204 669.82 378 464.175 378C258.531 378 4 470.984 4 515.109C4 559.234 258.531 537.791 464.175 537.791Z" fill="#6C63FF"/>
<defs>
<filter id="filter0_d" x="0" y="0" width="841" height="551" filterUnits="userSpaceOnUse" color-interpolation-filters="sRGB">
<feFlood flood-opacity="0" result="BackgroundImageFix"/>
<feColorMatrix in="SourceAlpha" type="matrix" values="0 0 0 0 0 0 0 0 0 0 0 0 0 0 0 0 0 0 127 0"/>
<feOffset dy="4"/>
<feGaussianBlur stdDeviation="2"/>
<feColorMatrix type="matrix" values="0 0 0 0 0 0 0 0 0 0 0 0 0 0 0 0 0 0 0.25 0"/>
<feBlend mode="normal" in2="BackgroundImageFix" result="effect1_dropShadow"/>
<feBlend mode="normal" in="SourceGraphic" in2="effect1_dropShadow" result="shape"/>
</filter>
<clipPath id="clip0">
<rect width="507.979" height="416.367" fill="white" transform="translate(329 127)"/>
</clipPath>
</defs>
</svg>
