<svg width="45" height="32" viewBox="0 0 45 32" fill="none" xmlns="http://www.w3.org/2000/svg">
<path d="M20.6109 22.1429C20.6109 25 19.7044 27.381 17.8914 29.2857C16.0784 31.0952 13.6929 32 10.7348 32C7.68136 32 5.10501 30.9048 3.00575 28.7143C1.00192 26.5238 0 23.2857 0 19C0 16.2381 0.477103 13.7143 1.43131 11.4286C2.38552 9.14286 3.6737 7.14286 5.29585 5.42857C6.918 3.71428 8.73099 2.38095 10.7348 1.42857C12.8341 0.476192 15.0288 0 17.3188 0V5.28572C14.9333 5.28572 12.8818 6.14286 11.1642 7.85715C9.44665 9.57143 8.58786 11.4762 8.58786 13.5714C9.35122 13.1905 10.4009 13 11.7367 13C14.3131 13 16.4124 13.8095 18.0345 15.4286C19.7521 17.0476 20.6109 19.2857 20.6109 22.1429ZM44.8 22.1429C44.8 25 43.8935 27.381 42.0805 29.2857C40.2675 31.0952 37.882 32 34.924 32C31.8705 32 29.2941 30.9048 27.1949 28.7143C25.1911 26.5238 24.1891 23.2857 24.1891 19C24.1891 16.3333 24.6662 13.8571 25.6204 11.5714C26.5747 9.19048 27.8628 7.14286 29.485 5.42857C31.1071 3.71428 32.9201 2.38095 34.924 1.42857C37.0232 0.476192 39.2179 0 41.508 0V5.28572C39.1225 5.38095 37.0709 6.28572 35.3534 8C33.6358 9.61905 32.777 11.4762 32.777 13.5714C33.6358 13.1905 34.6377 13 35.7827 13C38.4545 13 40.6015 13.8095 42.2236 15.4286C43.9412 17.0476 44.8 19.2857 44.8 22.1429Z" fill="#0A59F8"/>
</svg>
